<svg height="512pt" viewBox="0 0 512 512.00111" width="512pt" xmlns="http://www.w3.org/2000/svg"><path d="m460.617188 170.800781c.015624-21.128906-3.242188-42.132812-9.65625-62.269531l-16.25 5.1875c17.550781 55.183594 8.703124 115.375-23.976563 163.179688l14.058594 9.621093c23.410156-34.042969 35.902343-74.402343 35.824219-115.71875zm0 0"/><path d="m150.128906 15.769531-9.632812-14.082031c-74.722656 51.082031-107.101563 145.125-79.660156 231.382812l16.25-5.1875c-25.144532-79.074218 4.542968-165.28125 73.042968-212.113281zm0 0"/><path d="m91.050781 260.546875c-2.910156-5.324219-5.5625-10.808594-7.902343-16.3125l-15.703126 6.671875c2.558594 5.972656 5.460938 12 8.625 17.8125zm0 0"/><path d="m234.121094 163.167969c-7.589844-3.753907-12.378906-11.503907-12.34375-19.96875v-49.167969c0-18.84375 15.277344-34.117188 34.121094-34.117188s34.121093 15.273438 34.121093 34.117188v49.167969c.03125 8.464843-4.753906 16.214843-12.34375 19.96875-2.890625 1.445312-4.71875 4.402343-4.71875 7.632812v17.0625c0 3.910157 2.664063 7.320313 6.457031 8.273438l42.402344 10.601562c11.390625 2.847657 19.378906 13.082031 19.382813 24.824219v41.597656h17.058593v-41.597656c.019532-19.578125-13.304687-36.648438-32.300781-41.378906l-35.9375-8.984375v-5.542969c10.703125-7.3125 17.09375-19.453125 17.058594-32.414062v-49.210938c0-28.265625-22.914063-51.179688-51.179687-51.179688-28.265626 0-51.179688 22.914063-51.179688 51.179688v49.167969c-.046875 12.976562 6.34375 25.136719 17.0625 32.457031v5.542969l-35.929688 8.984375c-19 4.726562-32.332031 21.796875-32.3125 41.378906v41.597656h17.0625v-41.597656c0-11.742188 7.988282-21.976562 19.378907-24.824219l42.402343-10.601562c3.792969-.953125 6.457032-4.363281 6.457032-8.273438v-17.0625c0-3.230469-1.824219-6.1875-4.71875-7.632812zm0 0"/><path d="m187.660156 247.570312h17.058594v42.652344h-17.058594zm0 0"/><path d="m307.078125 247.570312h17.0625v42.652344h-17.0625zm0 0"/><path d="m17.058594 494.941406c.003906-11.742187 7.992187-21.972656 19.382812-24.824218l42.402344-10.601563c3.792969-.949219 6.457031-4.363281 6.457031-8.273437v-17.058594c.015625-3.25-1.8125-6.226563-4.71875-7.679688-7.574219-3.746094-12.359375-11.472656-12.34375-19.925781v-49.164063c0-18.84375 15.277344-34.121093 34.121094-34.121093s34.121094 15.277343 34.121094 34.121093v49.164063c.03125 8.46875-4.753907 16.214844-12.34375 19.96875-2.90625 1.453125-4.734375 4.429687-4.71875 7.675781v17.0625c0 3.910156 2.664062 7.324219 6.457031 8.273438l42.402344 10.601562c11.375 2.847656 19.359375 13.054688 19.382812 24.78125v17.058594h17.058594v-17.058594c.019531-19.578125-13.304688-36.648437-32.300781-41.378906l-35.9375-8.949219v-5.542969c10.703125-7.3125 17.09375-19.453124 17.058593-32.414062v-49.242188c0-28.269531-22.914062-51.179687-51.179687-51.179687s-51.179687 22.914063-51.179687 51.179687v49.164063c-.046876 12.980469 6.34375 25.136719 17.0625 32.457031v5.546875l-35.929688 8.980469c-19 4.726562-32.3320312 21.800781-32.3125 41.378906v17.058594h17.0625v-17.058594zm0 0"/><path d="m479.496094 453.5625-35.9375-8.949219v-5.542969c10.703125-7.3125 17.09375-19.453124 17.058594-32.414062v-49.246094c0-28.265625-22.914063-51.179687-51.179688-51.179687s-51.179688 22.914062-51.179688 51.179687v49.167969c-.046874 12.980469 6.34375 25.136719 17.0625 32.457031v5.542969l-35.929687 8.984375c-19 4.726562-32.332031 21.796875-32.3125 41.378906v17.058594h17.0625v-17.058594c0-11.742187 7.988281-21.972656 19.378906-24.824218l42.402344-10.601563c3.792969-.949219 6.457031-4.363281 6.457031-8.273437v-17.058594c.019532-3.25-1.8125-6.226563-4.71875-7.679688-7.574218-3.746094-12.359375-11.472656-12.339844-19.925781v-49.164063c0-18.84375 15.273438-34.121093 34.117188-34.121093s34.121094 15.277343 34.121094 34.121093v49.164063c.035156 8.46875-4.753906 16.214844-12.34375 19.96875-2.90625 1.453125-4.734375 4.429687-4.71875 7.675781v17.0625c0 3.910156 2.664062 7.324219 6.460937 8.273438l42.402344 10.601562c11.371094 2.847656 19.355469 13.054688 19.378906 24.78125v17.058594h17.058594v-17.058594c.019531-19.578125-13.304687-36.648437-32.300781-41.378906zm0 0"/><path d="m426.5 170.800781c.109375-94.21875-76.179688-170.6875-170.398438-170.800781s-170.691406 76.179688-170.800781 170.398438c-.101562 84.414062 61.550781 156.207031 145.007813 168.871093v19.191407c-4.710938 0-8.53125 3.820312-8.53125 8.53125v110.886718c0 18.84375 15.277344 34.121094 34.121094 34.121094s34.121093-15.277344 34.121093-34.121094v-110.886718c0-4.710938-3.820312-8.53125-8.53125-8.53125v-19.191407c83.28125-12.6875 144.859375-84.226562 145.011719-168.46875zm-324.140625 0c0-84.796875 68.742187-153.539062 153.539063-153.539062 84.796874 0 153.539062 68.742187 153.539062 153.539062s-68.742188 153.539063-153.539062 153.539063c-84.757813-.097656-153.441407-68.78125-153.539063-153.539063zm170.597656 307.078125c0 9.421875-7.636719 17.0625-17.058593 17.0625-9.421876 0-17.058594-7.640625-17.058594-17.0625v-102.359375h34.117187zm-8.527343-119.417968h-17.0625v-17.496094c2.839843.144531 5.648437.4375 8.53125.4375 2.882812 0 5.691406-.292969 8.53125-.4375zm0 0"/></svg>