<?xml version="1.0"?>
<svg xmlns="http://www.w3.org/2000/svg" xmlns:xlink="http://www.w3.org/1999/xlink" xmlns:svgjs="http://svgjs.com/svgjs" version="1.1" width="512" height="512" x="0" y="0" viewBox="0 0 512 512" style="enable-background:new 0 0 512 512" xml:space="preserve" class=""><g><path xmlns="http://www.w3.org/2000/svg" d="m504.5 21.214h-497c-4.143 0-7.5 3.357-7.5 7.5v95.661c0 4.143 3.357 7.5 7.5 7.5s7.5-3.357 7.5-7.5v-88.161h482v258.411c0 4.143 3.357 7.5 7.5 7.5s7.5-3.357 7.5-7.5v-265.911c0-4.143-3.357-7.5-7.5-7.5z" fill="#0070d2" data-original="#000000" style="" class=""/><path xmlns="http://www.w3.org/2000/svg" d="m504.5 322.063c-4.143 0-7.5 3.357-7.5 7.5v105.817h-482v-275.942c0-4.143-3.357-7.5-7.5-7.5s-7.5 3.357-7.5 7.5v323.849c0 4.143 3.357 7.5 7.5 7.5h497c4.143 0 7.5-3.357 7.5-7.5v-153.724c0-4.143-3.357-7.5-7.5-7.5zm-489.5 153.723v-25.406h482v25.406z" fill="#0070d2" data-original="#000000" style="" class=""/><path xmlns="http://www.w3.org/2000/svg" d="m70.13 226.124h91.925c1.989 0 3.896-.79 5.304-2.196l57.579-57.579c1.406-1.407 2.196-3.314 2.196-5.304v-91.925c0-4.143-3.357-7.5-7.5-7.5h-149.504c-4.143 0-7.5 3.357-7.5 7.5v149.504c0 4.143 3.357 7.5 7.5 7.5zm99.425-25.606v-31.973h31.973zm-91.925-123.898h134.504v76.925h-50.079c-4.143 0-7.5 3.357-7.5 7.5v50.079h-76.925z" fill="#0070d2" data-original="#000000" style="" class=""/><path xmlns="http://www.w3.org/2000/svg" d="m100.435 106.925h90.915c4.143 0 7.5-3.357 7.5-7.5s-3.357-7.5-7.5-7.5h-90.915c-4.143 0-7.5 3.357-7.5 7.5s3.357 7.5 7.5 7.5z" fill="#0070d2" data-original="#000000" style="" class=""/><path xmlns="http://www.w3.org/2000/svg" d="m100.435 137.229h90.915c4.143 0 7.5-3.357 7.5-7.5s-3.357-7.5-7.5-7.5h-90.915c-4.143 0-7.5 3.357-7.5 7.5s3.357 7.5 7.5 7.5z" fill="#0070d2" data-original="#000000" style="" class=""/><path xmlns="http://www.w3.org/2000/svg" d="m135.791 153.545h-35.356c-4.143 0-7.5 3.357-7.5 7.5s3.357 7.5 7.5 7.5h35.356c4.143 0 7.5-3.357 7.5-7.5s-3.357-7.5-7.5-7.5z" fill="#0070d2" data-original="#000000" style="" class=""/><path xmlns="http://www.w3.org/2000/svg" d="m292.366 226.124h91.925c1.989 0 3.896-.79 5.304-2.196l57.579-57.579c1.406-1.407 2.196-3.314 2.196-5.304v-91.925c0-4.143-3.357-7.5-7.5-7.5h-149.504c-4.143 0-7.5 3.357-7.5 7.5v149.504c0 4.143 3.358 7.5 7.5 7.5zm99.425-25.606v-31.973h31.973zm-91.925-123.898h134.504v76.925h-50.079c-4.143 0-7.5 3.357-7.5 7.5v50.079h-76.925z" fill="#0070d2" data-original="#000000" style="" class=""/><path xmlns="http://www.w3.org/2000/svg" d="m322.671 106.925h90.914c4.143 0 7.5-3.357 7.5-7.5s-3.357-7.5-7.5-7.5h-90.914c-4.143 0-7.5 3.357-7.5 7.5s3.357 7.5 7.5 7.5z" fill="#0070d2" data-original="#000000" style="" class=""/><path xmlns="http://www.w3.org/2000/svg" d="m322.671 137.229h90.914c4.143 0 7.5-3.357 7.5-7.5s-3.357-7.5-7.5-7.5h-90.914c-4.143 0-7.5 3.357-7.5 7.5s3.357 7.5 7.5 7.5z" fill="#0070d2" data-original="#000000" style="" class=""/><path xmlns="http://www.w3.org/2000/svg" d="m358.026 153.545h-35.355c-4.143 0-7.5 3.357-7.5 7.5s3.357 7.5 7.5 7.5h35.355c4.143 0 7.5-3.357 7.5-7.5s-3.357-7.5-7.5-7.5z" fill="#0070d2" data-original="#000000" style="" class=""/><path xmlns="http://www.w3.org/2000/svg" d="m62.63 404.494c0 4.143 3.357 7.5 7.5 7.5h91.925c1.989 0 3.896-.79 5.304-2.196l57.579-57.579c1.406-1.407 2.196-3.314 2.196-5.304v-91.925c0-4.143-3.357-7.5-7.5-7.5h-88.071c-4.143 0-7.5 3.357-7.5 7.5s3.357 7.5 7.5 7.5h80.571v76.925h-50.079c-4.143 0-7.5 3.357-7.5 7.5v50.079h-76.925v-134.504h18.953c4.143 0 7.5-3.357 7.5-7.5s-3.357-7.5-7.5-7.5h-26.453c-4.143 0-7.5 3.357-7.5 7.5zm138.897-50.079-31.973 31.973v-31.973z" fill="#0070d2" data-original="#000000" style="" class=""/><path xmlns="http://www.w3.org/2000/svg" d="m191.35 277.795h-90.915c-4.143 0-7.5 3.357-7.5 7.5s3.357 7.5 7.5 7.5h90.915c4.143 0 7.5-3.357 7.5-7.5s-3.358-7.5-7.5-7.5z" fill="#0070d2" data-original="#000000" style="" class=""/><path xmlns="http://www.w3.org/2000/svg" d="m198.85 315.6c0-4.143-3.357-7.5-7.5-7.5h-90.915c-4.143 0-7.5 3.357-7.5 7.5s3.357 7.5 7.5 7.5h90.915c4.142 0 7.5-3.358 7.5-7.5z" fill="#0070d2" data-original="#000000" style="" class=""/><path xmlns="http://www.w3.org/2000/svg" d="m100.435 339.415c-4.143 0-7.5 3.357-7.5 7.5s3.357 7.5 7.5 7.5h35.356c4.143 0 7.5-3.357 7.5-7.5s-3.357-7.5-7.5-7.5z" fill="#0070d2" data-original="#000000" style="" class=""/><path xmlns="http://www.w3.org/2000/svg" d="m284.866 404.494c0 4.143 3.357 7.5 7.5 7.5h91.925c1.989 0 3.896-.79 5.304-2.196l57.579-57.579c1.406-1.407 2.196-3.314 2.196-5.304v-91.925c0-4.143-3.357-7.5-7.5-7.5h-149.504c-4.143 0-7.5 3.357-7.5 7.5zm106.925-18.106v-31.973h31.973zm-91.925-123.898h134.504v76.925h-50.079c-4.143 0-7.5 3.357-7.5 7.5v50.079h-76.925z" fill="#0070d2" data-original="#000000" style="" class=""/><path xmlns="http://www.w3.org/2000/svg" d="m322.671 323.1h90.914c4.143 0 7.5-3.357 7.5-7.5v-30.305c0-4.143-3.357-7.5-7.5-7.5h-90.914c-4.143 0-7.5 3.357-7.5 7.5v30.305c0 4.142 3.357 7.5 7.5 7.5zm7.5-30.305h75.914v15.305h-75.914z" fill="#0070d2" data-original="#000000" style="" class=""/><path xmlns="http://www.w3.org/2000/svg" d="m322.671 354.415h35.355c4.143 0 7.5-3.357 7.5-7.5s-3.357-7.5-7.5-7.5h-35.355c-4.143 0-7.5 3.357-7.5 7.5s3.357 7.5 7.5 7.5z" fill="#0070d2" data-original="#000000" style="" class=""/><path xmlns="http://www.w3.org/2000/svg" d="m358.026 366.689h-35.355c-4.143 0-7.5 3.357-7.5 7.5s3.357 7.5 7.5 7.5h35.355c4.143 0 7.5-3.357 7.5-7.5s-3.357-7.5-7.5-7.5z" fill="#0070d2" data-original="#000000" style="" class=""/></g></svg>
