<?xml version="1.0"?>
<svg xmlns="http://www.w3.org/2000/svg" height="512px" viewBox="0 1 421.8983 421" width="512px"><g><path d="m35.167969 77.816406h-14.066407c-3.882812 0-7.03125-3.148437-7.03125-7.035156v-42.199219c0-15.511719 12.621094-28.132812 28.132813-28.132812h14.066406c3.882813 0 7.03125 3.148437 7.03125 7.035156v42.199219c0 15.511718-12.621093 28.132812-28.132812 28.132812zm-7.03125-14.066406h7.03125c7.757812 0 14.066406-6.308594 14.066406-14.066406v-35.167969h-7.03125c-7.757813 0-14.066406 6.308594-14.066406 14.066406zm0 0" data-original="#000000" class="active-path" data-old_color="#000000" fill="#6991C6"/><path d="m21.101562 28h35.167969v14.066406h-35.167969zm0 0" data-original="#000000" class="active-path" data-old_color="#000000" fill="#6991C6"/><path d="m32.523438 215.550781c-3.109376 0-5.917969-2.074219-6.773438-5.167969l-25.496094-92.597656c-.921875-3.351562.742188-6.875 3.910156-8.292968l69.453126-31.0625c1.980468-.890626 4.257812-.808594 6.183593.214843 1.914063 1.023438 3.25 2.875 3.617188 5.015625l19.34375 112.53125c.65625 3.820313-1.894531 7.449219-5.710938 8.117188l-63.300781 11.140625c-.410156.066406-.820312.101562-1.226562.101562zm-17.105469-95.679687 22.195312 80.609375 50.097657-8.8125-16.621094-96.699219zm0 0" data-original="#000000" class="active-path" data-old_color="#000000" fill="#6991C6"/><path d="m152.101562 141.117188c-.460937 0-.921874-.046876-1.386718-.136719l-70.332032-14.066407 2.761719-13.792968 65.066407 13.011718 20.410156-40.832031-18.585938 18.589844c-1.667968 1.671875-4.058594 2.390625-6.386718 1.914063l-68.574219-14.066407 2.828125-13.777343 64.863281 13.304687 46.558594-46.554687c2.433593-2.441407 6.285156-2.761719 9.085937-.730469 2.796875 2.015625 3.722656 5.761719 2.179688 8.847656l-42.203125 84.398437c-1.207031 2.417969-3.660157 3.890626-6.285157 3.890626zm0 0" data-original="#000000" class="active-path" data-old_color="#000000" fill="#6991C6"/><path d="m39.5625 422.449219h-25.496094c-2.0625 0-4.023437-.90625-5.359375-2.480469-1.335937-1.574219-1.914062-3.652344-1.578125-5.695312l18.367188-111.960938v-93.796875c0-3.414063 2.453125-6.335937 5.816406-6.925781l63.296875-11.132813 77.332031-14.058593c1.117188-.207032 2.265625-.136719 3.351563.203124l112.53125 35.171876c3.558593 1.105468 5.632812 4.800781 4.726562 8.414062l-7.035156 28.132812c-.921875 3.6875-4.59375 5.996094-8.3125 5.171876l-103.601563-22.449219-85.816406 28.875-9.699218 44.460937-31.75 112.9375c-.855469 3.035156-3.621094 5.132813-6.773438 5.132813zm-17.214844-14.066407h11.890625l30.203125-107.402343 10.449219-47.949219c.53125-2.417969 2.285156-4.382812 4.632813-5.171875l91.429687-30.769531c1.199219-.398438 2.492187-.46875 3.734375-.207032l98.835938 21.414063 3.773437-15.082031-104.546875-32.667969-133.1875 23.875v88.460937c0 .382813-.03125.761719-.089844 1.140626zm0 0" data-original="#000000" class="active-path" data-old_color="#000000" fill="#6991C6"/><path d="m180.421875 23.261719 13.648437-3.410157 7.03125 28.132813-13.648437 3.410156zm0 0" data-original="#000000" class="active-path" data-old_color="#000000" fill="#6991C6"/><path d="m88.796875 197.382812c-1.074219 0-2.152344-.246093-3.144531-.742187l-70.332032-35.167969 6.289063-12.582031 60.15625 30.078125v-45.148438l-7.640625 17.1875c-.78125 1.753907-2.246094 3.113282-4.050781 3.761719-1.824219.644531-3.808594.519531-5.523438-.328125l-56.265625-28.132812 6.292969-12.585938 49.683594 24.84375 18.109375-40.75c1.347656-3.035156 4.652344-4.726562 7.886718-4.023437 3.25.6875 5.574219 3.558593 5.574219 6.878906v89.675781c0 2.4375-1.265625 4.703125-3.335937 5.984375-1.128906.695313-2.414063 1.050781-3.699219 1.050781zm0 0" data-original="#000000" class="active-path" data-old_color="#000000" fill="#6991C6"/><path d="m75.332031 87.707031 12.851563-5.710937 7.03125 15.824218-12.851563 5.710938zm0 0" data-original="#000000" class="active-path" data-old_color="#000000" fill="#6991C6"/><path d="m278.910156 216.777344 7.027344-28.132813 13.640625 3.40625-7.023437 28.136719zm0 0" data-original="#000000" class="active-path" data-old_color="#000000" fill="#6991C6"/><path d="m39.5625 408.382812h21.101562v14.066407h-21.101562zm0 0" data-original="#000000" class="active-path" data-old_color="#000000" fill="#6991C6"/><path d="m91.433594 63.75h-14.066406v-14.066406h7.035156v-21.101563h-7.035156v-14.066406h14.066406c3.882812 0 7.035156 3.148437 7.035156 7.035156v35.164063c0 3.886718-3.148438 7.035156-7.035156 7.035156zm0 0" data-original="#000000" class="active-path" data-old_color="#000000" fill="#6991C6"/><path d="m414.964844 141.117188c-.527344 0-1.054688-.058594-1.578125-.179688l-91.433594-21.101562c-3.191406-.738282-5.453125-3.578126-5.453125-6.855469v-84.398438c0-3.273437 2.261719-6.117187 5.453125-6.855469l91.433594-21.097656c2.082031-.46875 4.285156.015625 5.957031 1.347656 1.679688 1.335938 2.65625 3.363282 2.65625 5.507813v126.597656c0 2.144531-.976562 4.167969-2.65625 5.503907-1.25 1-2.804688 1.53125-4.378906 1.53125zm-84.398438-33.730469 77.367188 17.855469v-108.917969l-77.367188 17.851562zm0 0" data-original="#000000" class="active-path" data-old_color="#000000" fill="#6991C6"/><path d="m351.667969 91.882812h35.164062v14.066407h-35.164062zm0 0" data-original="#000000" class="active-path" data-old_color="#000000" fill="#6991C6"/><path d="m218.035156 105.949219h14.066406v14.066406h-14.066406zm0 0" data-original="#000000" class="active-path" data-old_color="#000000" fill="#6991C6"/><path d="m246.167969 77.816406h70.332031v14.066406h-70.332031zm0 0" data-original="#000000" class="active-path" data-old_color="#000000" fill="#6991C6"/><path d="m365.734375 28.582031h21.097656v14.066407h-21.097656zm0 0" data-original="#000000" class="active-path" data-old_color="#000000" fill="#6991C6"/><path d="m225.066406 21.550781h42.203125v14.066407h-42.203125zm0 0" data-original="#000000" class="active-path" data-old_color="#000000" fill="#6991C6"/><path d="m330.566406 56.714844h35.167969v14.066406h-35.167969zm0 0" data-original="#000000" class="active-path" data-old_color="#000000" fill="#6991C6"/><path d="m281.335938 7.484375h28.132812v14.066406h-28.132812zm0 0" data-original="#000000" class="active-path" data-old_color="#000000" fill="#6991C6"/><path d="m260.234375 49.683594h42.199219v14.066406h-42.199219zm0 0" data-original="#000000" class="active-path" data-old_color="#000000" fill="#6991C6"/><path d="m246.167969 105.949219h42.199219v14.066406h-42.199219zm0 0" data-original="#000000" class="active-path" data-old_color="#000000" fill="#6991C6"/><path d="m112.535156 14.515625h35.164063v14.066406h-35.164063zm0 0" data-original="#000000" class="active-path" data-old_color="#000000" fill="#6991C6"/><path d="m147.699219 35.617188h21.101562v14.066406h-21.101562zm0 0" data-original="#000000" class="active-path" data-old_color="#000000" fill="#6991C6"/><path d="m119.566406 56.714844h21.101563v14.066406h-21.101563zm0 0" data-original="#000000" class="active-path" data-old_color="#000000" fill="#6991C6"/><path d="m196.933594 77.816406h21.101562v14.066406h-21.101562zm0 0" data-original="#000000" class="active-path" data-old_color="#000000" fill="#6991C6"/><path d="m225.066406 49.683594h14.066406v14.066406h-14.066406zm0 0" data-original="#000000" class="active-path" data-old_color="#000000" fill="#6991C6"/><path d="m201.160156 329.605469-8.449218-11.25c21.472656-16.125 39.316406-35.996094 53.039062-59.054688l12.085938 7.199219c-14.664063 24.636719-33.730469 45.867188-56.675782 63.105469zm0 0" data-original="#000000" class="active-path" data-old_color="#000000" fill="#6991C6"/><path d="m173.757812 347.164062-6.703124-12.363281c4.148437-2.253906 8.203124-4.621093 12.058593-7.0625l7.511719 11.898438c-4.117188 2.59375-8.445312 5.128906-12.867188 7.527343zm0 0" data-original="#000000" class="active-path" data-old_color="#000000" fill="#6991C6"/></g> </svg>
