<?xml version="1.0" encoding="iso-8859-1"?>
<!-- Generator: Adobe Illustrator 19.0.0, SVG Export Plug-In . SVG Version: 6.00 Build 0)  -->
<svg version="1.1" id="Capa_1" xmlns="http://www.w3.org/2000/svg" xmlns:xlink="http://www.w3.org/1999/xlink" x="0px" y="0px"
	 viewBox="0 0 480.282 480.282" style="enable-background:new 0 0 480.282 480.282;" xml:space="preserve">
<g>
	<g>
		<path d="M461.462,171.742c-12.399-19.844-27.285-38.021-44.294-54.09l36.231-31.621l-10.516-12.063l-37.802,32.992
			c-18.291-15.129-38.645-27.574-60.448-36.96l21.211-42.422l-14.312-7.156l-21.835,43.669
			c-26.236-9.324-53.734-14.62-81.556-15.706V0h-16v48.074c-29.038,0.012-57.874,4.834-85.336,14.27l-20.961-41.922l-14.313,7.156
			l20.303,40.606c-20.277,8.749-39.202,20.346-56.204,34.441L36.938,73.602l-9.594,12.797l36.038,27.031
			c-18.243,17.335-34.195,36.932-47.467,58.313c-1.633,2.604-1.633,5.912,0,8.516c19.525,31.535,45.444,58.627,76.084,79.528
			c-33.387,81.816,5.872,175.207,87.689,208.594c81.816,33.387,175.207-5.872,208.594-87.689
			c15.805-38.731,15.814-82.112,0.023-120.85c5.819-4.156,11.559-8.525,17.048-13.24c21.915-19.184,40.829-41.548,56.109-66.344
			C463.094,177.654,463.094,174.346,461.462,171.742z M96.546,328h55.81c0.458,25.93,4.746,51.651,12.724,76.327
			c-12.901,1.548-25.26,3.532-37.015,5.878C109.186,386.794,98.158,358.032,96.546,328z M165.081,235.673
			c-7.979,24.677-12.266,50.397-12.724,76.327h-55.81c1.612-30.032,12.64-58.794,31.519-82.206
			C139.82,232.141,152.179,234.124,165.081,235.673z M140.877,215.943c14.992-14.318,32.899-25.231,52.496-31.993
			c-9.343,10.829-16.911,23.069-22.422,36.267C160.585,219.05,150.52,217.635,140.877,215.943z M140.877,424.057
			c9.642-1.692,19.708-3.107,30.075-4.274c5.511,13.198,13.079,25.439,22.422,36.268
			C173.777,449.288,155.87,438.375,140.877,424.057z M232.141,463.001c-17.124-3.991-32.603-20.6-44.069-44.874
			c14.286-1.171,29.035-1.855,44.069-2.035V463.001z M232.141,400.092c-17.254,0.202-34.18,1.037-50.478,2.512
			c-8.279-24.027-12.77-49.196-13.312-74.604h63.79V400.092z M232.141,312h-63.79c0.542-25.408,5.033-50.577,13.312-74.604
			c16.298,1.476,33.224,2.31,50.478,2.512V312z M232.141,223.909c-15.034-0.18-29.783-0.864-44.069-2.035
			c11.466-24.274,26.945-40.883,44.069-44.875V223.909z M248.141,463.001v-46.91c15.034,0.18,29.783,0.864,44.069,2.035
			C280.744,442.401,265.265,459.01,248.141,463.001z M292.21,221.874c-14.286,1.171-29.035,1.855-44.069,2.035v-46.91
			C265.265,180.99,280.744,197.599,292.21,221.874z M286.909,183.95c19.597,6.762,37.504,17.675,52.497,31.993
			c-9.642,1.692-19.708,3.107-30.074,4.274C303.82,207.02,296.252,194.779,286.909,183.95z M298.619,237.396
			c8.279,24.027,12.77,49.196,13.312,74.604h-63.79v-72.092C265.396,239.706,282.321,238.872,298.619,237.396z M311.931,328
			c-0.542,25.408-5.033,50.577-13.312,74.604c-16.298-1.476-33.224-2.31-50.478-2.512V328H311.931z M286.908,456.05
			c9.343-10.829,16.911-23.07,22.422-36.268c10.366,1.167,20.432,2.582,30.074,4.274
			C324.412,438.375,306.506,449.288,286.908,456.05z M352.217,410.206c-11.756-2.347-24.114-4.33-37.015-5.878h0
			c7.979-24.677,12.266-50.397,12.724-76.327h55.81C382.124,358.032,371.096,386.794,352.217,410.206z M327.926,312
			c-0.458-25.93-4.746-51.651-12.724-76.327c12.901-1.548,25.26-3.532,37.015-5.878c18.879,23.412,29.907,52.174,31.519,82.206
			H327.926z M394.93,234.461c-4.366,3.753-8.906,7.258-13.501,10.635c-7.922-14.843-18.125-28.35-30.235-40.028
			c0.581-4.333,0.897-8.696,0.948-13.068c-0.01-61.866-50.17-112.01-112.036-112c-45.21,0.007-85.984,27.191-103.378,68.922
			l14.766,6.156c20.326-48.897,76.442-72.059,125.339-51.734c2.675,1.112,5.298,2.344,7.861,3.694
			c-11.613,6.313-15.91,20.846-9.596,32.459c6.313,11.613,20.846,15.91,32.459,9.596c4.994-2.715,8.859-7.119,10.903-12.423
			c11.503,16.156,17.684,35.497,17.683,55.33l-0.013,0.293c-56.748-43.058-135.226-43.058-191.974,0L144.141,192
			c-0.003-7.463,0.86-14.9,2.57-22.164l-15.578-3.672c-1.992,8.468-2.996,17.137-2.992,25.836c0.051,4.371,0.367,8.735,0.948,13.067
			c-12.118,11.686-22.324,25.202-30.248,40.055c-26.494-18.499-49.133-41.979-66.653-69.13C81.086,100.648,147.399,64,234.758,64
			c88.625,0,163.148,39.727,210.43,112.008C431.294,197.778,414.371,217.46,394.93,234.461z M304.141,128c0,4.418-3.582,8-8,8
			s-8-3.582-8-8s3.582-8,8-8C300.558,120.003,304.138,123.583,304.141,128z"/>
	</g>
</g>
<g>
	<g>
		<rect x="16.141" y="432" width="16" height="16"/>
	</g>
</g>
<g>
	<g>
		<rect x="16.141" y="464" width="16" height="16"/>
	</g>
</g>
<g>
	<g>
		<rect x="32.141" y="448" width="16" height="16"/>
	</g>
</g>
<g>
	<g>
		<rect x="0.141" y="448" width="16" height="16"/>
	</g>
</g>
<g>
	<g>
		<rect x="448.141" y="432" width="16" height="16"/>
	</g>
</g>
<g>
	<g>
		<rect x="448.141" y="464" width="16" height="16"/>
	</g>
</g>
<g>
	<g>
		<rect x="464.141" y="448" width="16" height="16"/>
	</g>
</g>
<g>
	<g>
		<rect x="432.141" y="448" width="16" height="16"/>
	</g>
</g>
<g>
</g>
<g>
</g>
<g>
</g>
<g>
</g>
<g>
</g>
<g>
</g>
<g>
</g>
<g>
</g>
<g>
</g>
<g>
</g>
<g>
</g>
<g>
</g>
<g>
</g>
<g>
</g>
<g>
</g>
</svg>
