<?xml version="1.0" encoding="iso-8859-1"?>
<!-- Generator: Adobe Illustrator 19.0.0, SVG Export Plug-In . SVG Version: 6.00 Build 0)  -->
<svg xmlns="http://www.w3.org/2000/svg" xmlns:xlink="http://www.w3.org/1999/xlink" version="1.1" id="Capa_1" x="0px" y="0px" viewBox="0 0 512.001 512.001" style="enable-background:new 0 0 512.001 512.001;" xml:space="preserve" width="512px" height="512px">
<g>
	<g>
		<path d="M186.771,422.819l-23.777-5.563c-7.295-1.707-12.39-8.132-12.39-15.624v-7.382c17.974-11.616,29.906-31.816,29.906-54.763    v-47.004c0-0.002,0-0.004,0-0.006v-0.091c0-0.054-0.007-0.091-0.008-0.143c-0.025-1.379-0.419-2.768-1.231-4.006    c-2.292-3.491-6.978-4.463-10.471-2.173c-6.332,4.156-21.555,6.707-29.682,6.707c-19.983,0-39.241-7.138-55.61-20.173    l-18.565-20.013c3.485-5.059,7.378-9.44,11.625-13.055c18.82-16.014,40.974-15.244,41.161-15.235    c13.973,0.722,27.247,7.075,39.457,18.885c10.918,10.561,19.081,25.645,24.26,44.832c1.088,4.032,5.237,6.414,9.271,5.331    c4.032-1.089,6.418-5.24,5.33-9.271c-5.901-21.861-15.438-39.276-28.347-51.764c-18.575-17.966-37.002-22.487-49.19-23.117    c-0.85-0.043-16.13-0.692-33.611,7.299c-7.98-3.848-16.791-5.868-25.714-5.868C26.55,210.624,0,237.174,0,269.808    c0,15.513,5.96,30.177,16.782,41.288c9.071,9.314,20.726,15.266,33.38,17.196v11.196c0,23.871,12.909,44.775,32.105,56.128v6.016    c0,7.492-5.095,13.916-12.39,15.624L46.1,422.819c-23.028,5.389-39.111,25.67-39.111,49.32v30.536    c0,4.177,3.386,7.562,7.562,7.562h203.771c4.176,0,7.562-3.385,7.562-7.562v-30.536    C225.882,448.489,209.799,428.208,186.771,422.819z M50.165,312.945c-20.171-4.124-35.041-21.776-35.041-43.137    c0-24.295,19.765-44.06,44.06-44.06c3.091,0,6.159,0.341,9.158,0.976c-0.526,0.424-1.052,0.846-1.574,1.29    c-6.748,5.742-12.717,12.945-17.748,21.406c-0.004,0.006-0.009,0.011-0.012,0.017c-0.014,0.022-0.026,0.045-0.04,0.067    c-0.017,0.029-0.035,0.056-0.052,0.084c-0.004,0.007-0.006,0.014-0.01,0.02c-4.686,7.551-7.979,15.774-9.778,24.449    c-1.605,7.739-1.982,15.657-1.118,23.535c0.237,2.167,1.399,4.126,3.186,5.375c1.282,0.895,2.796,1.363,4.331,1.363    c0.605,0,1.214-0.073,1.812-0.221c0.949-0.234,1.889-0.491,2.826-0.759V312.945z M55.813,285.079    c-0.85,0.222-1.645,0.581-2.351,1.063c-0.239,0.103-0.473,0.217-0.714,0.317c0.151-3.131,0.546-6.248,1.185-9.329    c0.679-3.272,1.639-6.461,2.841-9.557c3.199,3.782,6.562,7.322,10.072,10.609c-4.061,3.117-7.402,5.022-8.633,5.683    C57.425,284.289,56.622,284.689,55.813,285.079z M65.285,339.488v-42.255c0.029-0.016,0.058-0.03,0.087-0.045    c2.287-1.229,7.492-4.257,13.413-9.185c17.979,12.887,38.751,19.894,60.332,19.894c5.418,0,16.47-1.078,26.269-4.045v35.637    c0,27.597-22.452,50.049-50.05,50.049S65.285,367.085,65.285,339.488z M210.76,495.113L210.76,495.113H22.112v-22.974    c0-16.589,11.281-30.814,27.434-34.594l2.128-0.498c7.458,12.126,18.315,22.097,31.074,28.425c1.08,0.536,2.225,0.79,3.354,0.79    c2.782,0,5.46-1.542,6.78-4.203c1.856-3.741,0.327-8.279-3.414-10.135c-8.702-4.316-16.299-10.748-22.054-18.56l5.91-1.383    c14.01-3.278,23.836-15.516,24.057-29.856c5.708,1.639,11.727,2.535,17.955,2.535c7.03,0,13.796-1.133,20.145-3.201v0.173    c0,14.552,9.897,27.033,24.068,30.349l5.928,1.387c-11.354,15.527-29.386,24.85-49.041,24.85c-4.176,0-7.562,3.385-7.562,7.562    s3.386,7.562,7.562,7.562c26.696,0,50.994-13.767,64.765-36.294l2.125,0.497c16.153,3.78,27.434,18.005,27.434,34.594V495.113z" fill="#FFFFFF"/>
	</g>
</g>
<g>
	<g>
		<circle cx="92.49" cy="314.87" r="6.386" fill="#FFFFFF"/>
	</g>
</g>
<g>
	<g>
		<circle cx="135.91" cy="314.87" r="6.386" fill="#FFFFFF"/>
	</g>
</g>
<g>
	<g>
		<g>
			<path d="M121.82,355.312c-3.732,3.732-9.805,3.732-13.537,0c-2.928-2.928-7.677-2.929-10.606,0.001     c-2.929,2.928-2.928,7.677,0.001,10.606c4.79,4.789,11.082,7.184,17.374,7.184s12.584-2.395,17.373-7.184     c2.929-2.928,2.93-7.677,0.001-10.606C129.498,352.383,124.749,352.384,121.82,355.312z" fill="#FFFFFF"/>
			<path d="M382.413,373.104c6.291,0,12.584-2.396,17.374-7.185c2.929-2.928,2.929-7.677,0.001-10.606s-7.677-2.93-10.606-0.001     c-3.733,3.732-9.804,3.73-13.536,0c-2.93-2.928-7.677-2.929-10.607,0.001c-2.929,2.928-2.929,7.677,0,10.606     C369.83,370.709,376.121,373.104,382.413,373.104z" fill="#FFFFFF"/>
			<path d="M484.659,429.381c-3.668-1.998-8.26-0.645-10.259,3.022c-1.999,3.667-0.646,8.26,3.021,10.258     c12.182,6.64,19.456,17.66,19.456,29.478v22.974h-30.976v-8.956c0-4.177-3.386-7.562-7.562-7.562s-7.562,3.385-7.562,7.562v8.956     H314.643v-8.956c0-4.177-3.386-7.562-7.562-7.562c-4.176,0-7.562,3.385-7.562,7.562v8.956h-31.024v-22.974     c0-16.455,13.838-30.656,33.652-34.536l28.414-5.563c3.423-0.671,6.626-1.749,9.56-3.162     c12.258,9.133,27.168,14.121,42.565,14.121c15.397,0,30.308-4.988,42.565-14.121c2.934,1.413,6.137,2.492,9.56,3.162l19.28,3.775     c0.491,0.095,0.979,0.142,1.461,0.142c3.543,0,6.706-2.502,7.413-6.109c0.802-4.099-1.87-8.072-5.968-8.874l-19.28-3.775     c-9.082-1.778-15.675-8.325-15.675-15.566v-11.105c15.043-11.949,24.717-30.38,24.717-51.04v-47.002c0-0.004,0-0.007,0-0.011     v-0.087c0-0.053-0.007-0.089-0.008-0.139c-0.024-1.38-0.418-2.771-1.232-4.01c-2.291-3.491-6.98-4.463-10.471-2.173     c-6.332,4.156-21.555,6.707-29.681,6.707c-19.983,0-39.24-7.138-55.61-20.172l-18.565-20.014     c3.485-5.058,7.378-9.44,11.626-13.055c18.82-16.014,40.972-15.244,41.16-15.235c13.973,0.722,27.248,7.075,39.458,18.885     c10.918,10.561,19.08,25.645,24.26,44.833c1.088,4.032,5.238,6.413,9.271,5.33c4.032-1.089,6.418-5.24,5.33-9.272     c-5.902-21.86-15.439-39.276-28.347-51.762c-18.575-17.966-37.002-22.487-49.191-23.118c-1.138-0.058-28.2-1.212-51.741,18.821     c-6.75,5.743-12.72,12.948-17.751,21.41c-0.003,0.004-0.007,0.008-0.009,0.013c-0.011,0.017-0.02,0.034-0.031,0.051     c-0.02,0.034-0.042,0.067-0.063,0.101c-0.005,0.008-0.007,0.016-0.012,0.024c-4.685,7.548-7.976,15.771-9.776,24.443     c-1.606,7.739-1.982,15.657-1.118,23.536c0.237,2.167,1.399,4.126,3.186,5.375c1.282,0.895,2.796,1.363,4.331,1.363     c0.605,0,1.214-0.073,1.812-0.221c0.949-0.234,1.889-0.491,2.826-0.759v36.137c0,21.65,10.621,40.857,26.917,52.716v9.429     c0,7.241-6.592,13.787-15.674,15.566l-28.414,5.563c-27.007,5.288-45.869,25.594-45.869,49.378v30.536     c0,4.177,3.386,7.562,7.562,7.562h243.504c4.176,0,7.562-3.385,7.562-7.562v-30.536C512,454.697,501.779,438.712,484.659,429.381     z M382.686,427.875c-10.785,0-21.266-3.108-30.245-8.852c3.827-4.988,6.013-10.981,6.013-17.391v-1.228     c7.194,2.742,14.988,4.257,23.133,4.257c8.98,0,17.541-1.826,25.332-5.125v2.096c0,6.41,2.185,12.403,6.013,17.391     C403.953,424.766,393.472,427.875,382.686,427.875z M322.064,285.079c-0.85,0.222-1.644,0.581-2.35,1.063     c-0.24,0.103-0.473,0.217-0.714,0.317c0.151-3.132,0.546-6.248,1.185-9.329c0.679-3.273,1.638-6.461,2.841-9.557     c3.199,3.781,6.562,7.322,10.072,10.609c-4.063,3.117-7.404,5.022-8.634,5.683C323.676,284.289,322.873,284.69,322.064,285.079z      M331.536,339.488v-42.256c0.028-0.015,0.057-0.029,0.086-0.044c2.286-1.228,7.491-4.255,13.415-9.185     c17.979,12.887,38.751,19.893,60.332,19.893c5.418,0,16.47-1.078,26.268-4.045v35.637c0,27.597-22.452,50.049-50.05,50.049     S331.536,367.085,331.536,339.488z" fill="#FFFFFF"/>
		</g>
	</g>
</g>
<g>
	<g>
		<circle cx="358.74" cy="314.87" r="6.386" fill="#FFFFFF"/>
	</g>
</g>
<g>
	<g>
		<circle cx="402.16" cy="314.87" r="6.386" fill="#FFFFFF"/>
	</g>
</g>
<g>
	<g>
		<path d="M351.648,163.84c19.96-17.792,31.208-43.014,31.018-69.924c-0.361-50.947-41.939-92.152-92.824-92.152    c-0.212,0-0.429,0-0.641,0.002c-24.985,0.17-48.358,10.12-65.812,28.016c-8.543,8.759-15.14,18.896-19.602,29.895h-40.513    c-4.176,0-7.562,3.386-7.562,7.562c0,4.176,3.386,7.562,7.562,7.562h35.853c-1.063,4.924-1.73,9.96-1.984,15.072H160.38    c-4.176,0-7.562,3.386-7.562,7.562c0,4.176,3.386,7.562,7.562,7.562h37.227c0.576,5.127,1.597,10.161,3.004,15.071h-37.337    c-4.176,0-7.562,3.386-7.562,7.562c0,4.176,3.386,7.562,7.562,7.562h43.144c4.422,9.023,10.332,17.373,17.611,24.709    c1.894,1.909,3.867,3.711,5.893,5.435c-9.4,4.284-19.58,6.659-29.959,6.926c-6.652,0.173-13.274-0.495-19.684-1.982    c-2.508-0.582-5.145,0.155-6.99,1.954c-10.56,10.306-23.548,14.202-27.817,15.483c-1.038,0.312-2.085,0.6-3.141,0.864    c4.4-7.385,7.609-16.121,9.572-26.087c0.544-2.758-0.487-5.59-2.677-7.353c-18.609-14.981-29.184-37.257-29.015-61.117    c0.301-42.646,35.106-77.136,77.702-77.136c0.178,0,0.359,0,0.537,0.002c4.558,0.031,9.121,0.459,13.563,1.274    c4.114,0.757,8.049-1.967,8.801-6.074c0.753-4.108-1.966-8.049-6.074-8.801c-5.306-0.973-10.752-1.485-16.188-1.522    c-0.215-0.001-0.426-0.002-0.641-0.002c-50.881,0-92.463,41.208-92.823,92.152c-0.19,26.909,11.058,52.131,31.019,69.923    c-1.796,7.101-5.015,15.729-10.747,22.674c-3.021,3.661-3.503,8.703-1.229,12.847c2.031,3.7,5.853,5.924,10,5.924    c0.476,0,0.957-0.03,1.439-0.089c4.822-0.597,9.617-1.604,14.25-2.995c4.76-1.428,18.51-5.553,31.005-16.363    c6.407,1.191,12.96,1.707,19.529,1.54c15.305-0.395,30.246-4.615,43.516-12.229c13.182,7.577,28.061,11.831,43.532,12.229    c6.572,0.169,13.121-0.348,19.528-1.54c12.495,10.809,26.245,14.935,31.004,16.363c4.634,1.391,9.429,2.398,14.25,2.995    c0.482,0.06,0.962,0.089,1.439,0.089c4.147,0,7.969-2.223,10-5.923c2.274-4.143,1.792-9.186-1.228-12.848    C356.662,179.567,353.444,170.94,351.648,163.84z M342.281,187.717c-4.268-1.28-17.256-5.177-27.816-15.483    c-1.429-1.394-3.33-2.15-5.281-2.15c-0.569,0-1.142,0.064-1.708,0.195c-6.41,1.486-13.037,2.156-19.683,1.982    c-14.036-0.362-27.497-4.516-39.197-11.913c-0.367-0.289-0.756-0.543-1.163-0.756c-4.518-2.971-8.772-6.417-12.668-10.344    c-7.069-7.124-12.604-15.38-16.431-24.336c-0.053-0.138-0.109-0.274-0.17-0.407c-3.76-8.94-5.826-18.569-6.006-28.467    c-0.381-20.942,7.452-40.722,22.058-55.697c14.611-14.981,34.175-23.31,55.088-23.452c0.181-0.001,0.357-0.002,0.537-0.002    c42.592,0,77.4,34.493,77.702,77.136c0.169,23.86-10.406,46.137-29.015,61.118c-2.189,1.762-3.221,4.594-2.677,7.352    c1.963,9.965,5.172,18.703,9.572,26.088C344.367,188.317,343.319,188.029,342.281,187.717z" fill="#FFFFFF"/>
	</g>
</g>
<g>
	<g>
		<path d="M334.288,58.363h-85.576c-4.176,0-7.562,3.386-7.562,7.562c0.001,4.177,3.386,7.562,7.562,7.562h85.576    c4.176,0,7.562-3.386,7.562-7.562C341.85,61.749,338.464,58.363,334.288,58.363z" fill="#FFFFFF"/>
	</g>
</g>
<g>
	<g>
		<path d="M334.288,88.559h-85.576c-4.176,0-7.562,3.386-7.562,7.562c0.001,4.176,3.386,7.562,7.562,7.562h85.576    c4.176,0,7.562-3.386,7.562-7.562C341.85,91.945,338.464,88.559,334.288,88.559z" fill="#FFFFFF"/>
	</g>
</g>
<g>
	<g>
		<path d="M292.887,118.754h-44.175c-4.176,0-7.562,3.386-7.562,7.562c0.001,4.177,3.386,7.562,7.562,7.562h44.175    c4.176,0,7.562-3.386,7.562-7.562C300.449,122.14,297.063,118.754,292.887,118.754z" fill="#FFFFFF"/>
	</g>
</g>
<g>
</g>
<g>
</g>
<g>
</g>
<g>
</g>
<g>
</g>
<g>
</g>
<g>
</g>
<g>
</g>
<g>
</g>
<g>
</g>
<g>
</g>
<g>
</g>
<g>
</g>
<g>
</g>
<g>
</g>
</svg>
