<?xml version="1.0"?>
<svg xmlns="http://www.w3.org/2000/svg" xmlns:xlink="http://www.w3.org/1999/xlink" version="1.1" id="Capa_1" x="0px" y="0px" viewBox="0 0 480.004 480.004" style="enable-background:new 0 0 480.004 480.004;" xml:space="preserve" width="512px" height="512px" class=""><g><g>
	<g>
		<path d="M472.008,288.002c-0.001,0-0.003,0-0.004,0c-7.902-0.17-15.745,1.389-22.98,4.57c-10.902,4.573-23.184,4.573-34.086,0    c-14.71-6.094-31.239-6.094-45.949,0c-10.883,4.573-23.148,4.573-34.031,0c-6.087-2.678-12.62-4.195-19.264-4.472l-4.22-10.973    c-1.192-3.087-4.16-5.124-7.469-5.125h-8v-32c4.418,0,8-3.581,8-7.999c0-1.58-0.468-3.125-1.344-4.439l-32-48    c-2.741-3.676-7.943-4.434-11.619-1.693c-0.643,0.48-1.214,1.05-1.693,1.693l-32,48c-2.451,3.676-1.458,8.642,2.217,11.093    c1.315,0.877,2.859,1.344,4.439,1.344v32h-11.566l-37.648-60.242c-1.464-2.337-4.027-3.757-6.785-3.758h-8v-16h10.434    c8.254,0.006,16.143-3.401,21.797-9.414c5.475-5.794,8.268-13.619,7.699-21.57c-0.109-1.609-11.484-161.016-47.93-161.016    c-36.445,0-47.82,159.406-47.93,161.016c-0.569,7.951,2.224,15.776,7.699,21.57c5.654,6.013,13.543,9.42,21.797,9.414h10.434v16    h-96v-16h10.434c8.254,0.006,16.143-3.401,21.797-9.414c5.475-5.794,8.268-13.619,7.699-21.57    C95.824,159.408,84.449,0.002,48.004,0.002c-36.445,0-47.82,159.406-47.93,161.016c-0.569,7.951,2.224,15.776,7.699,21.57    c5.654,6.013,13.543,9.42,21.797,9.414h10.434v16H8c-4.418,0.001-7.999,3.582-8,8l0.004,256c-0.001,4.417,3.579,7.999,7.996,8    c0.001,0,0.003,0,0.004,0h464c4.417,0.001,7.999-3.579,8-7.996c0-0.001,0-0.003,0-0.004v-176    C480.005,291.585,476.425,288.003,472.008,288.002z M264.004,198.424l17.051,25.578h-34.102L264.004,198.424z M280.004,240.002v32    h-32v-32H280.004z M141.57,176.002c-3.826,0.035-7.491-1.539-10.102-4.336c-2.433-2.563-3.679-6.029-3.434-9.555    c4.852-70.586,21.684-139.109,31.969-145.891c10.285,6.781,27.117,75.305,31.969,145.891c0.246,3.525-1,6.992-3.434,9.555    c-2.611,2.797-6.275,4.371-10.102,4.336H141.57z M29.57,176.002c-3.826,0.035-7.491-1.539-10.102-4.336    c-2.433-2.563-3.679-6.029-3.434-9.555C20.887,91.525,37.719,23.002,48.004,16.221c10.285,6.781,27.117,75.305,31.969,145.891    c0.246,3.525-1,6.992-3.434,9.555c-2.61,2.797-6.275,4.371-10.102,4.336H29.57z M464.004,464.002h-448l-0.004-240h155.57    l37.648,60.242c1.464,2.337,4.027,3.757,6.785,3.758h82.504l38.027,98.875c1.192,3.087,4.159,5.124,7.469,5.125h120V464.002z     M464.004,376.002H349.5l-27.265-70.893c2.312,0.611,4.576,1.387,6.777,2.322c14.701,6.094,31.221,6.094,45.922,0    c10.895-4.573,23.171-4.573,34.066,0c14.714,6.094,31.247,6.094,45.961,0c2.901-1.27,5.933-2.214,9.043-2.813V376.002z" data-original="#000000" class="active-path" data-old_color="##6991C" fill="#6991C6"/>
	</g>
</g><g>
	<g>
		<path d="M416.004,32.002c-17.665,0.019-31.981,14.335-32,32c0,17.673,14.327,32,32,32c17.673,0,32-14.327,32-32    S433.677,32.002,416.004,32.002z M416.004,80.002c-8.837,0-16-7.163-16-16c0.01-8.832,7.168-15.99,16-16c8.837,0,16,7.163,16,16    S424.84,80.002,416.004,80.002z" data-original="#000000" class="active-path" data-old_color="##6991C" fill="#6991C6"/>
	</g>
</g><g>
	<g>
		<rect x="408.004" y="0.002" width="16" height="16" data-original="#000000" class="active-path" data-old_color="##6991C" fill="#6991C6"/>
	</g>
</g><g>
	<g>
		<rect x="464.004" y="56.002" width="16" height="16" data-original="#000000" class="active-path" data-old_color="##6991C" fill="#6991C6"/>
	</g>
</g><g>
	<g>
		<rect x="408.004" y="112.002" width="16" height="16" data-original="#000000" class="active-path" data-old_color="##6991C" fill="#6991C6"/>
	</g>
</g><g>
	<g>
		<rect x="352.004" y="56.002" width="16" height="16" data-original="#000000" class="active-path" data-old_color="##6991C" fill="#6991C6"/>
	</g>
</g><g>
	<g>
		<rect x="447.594" y="16.419" transform="matrix(0.7069 -0.7074 0.7074 0.7069 116.2801 329.424)" width="16" height="16" data-original="#000000" class="active-path" data-old_color="##6991C" fill="#6991C6"/>
	</g>
</g><g>
	<g>
		<rect x="447.591" y="95.566" transform="matrix(0.7074 -0.7069 0.7069 0.7074 60.1209 352.3479)" width="16" height="16" data-original="#000000" class="active-path" data-old_color="##6991C" fill="#6991C6"/>
	</g>
</g><g>
	<g>
		<rect x="368.401" y="95.613" transform="matrix(0.7069 -0.7074 0.7074 0.7069 37.0468 296.6205)" width="16" height="16" data-original="#000000" class="active-path" data-old_color="##6991C" fill="#6991C6"/>
	</g>
</g><g>
	<g>
		<rect x="368.405" y="16.407" transform="matrix(0.7074 -0.7069 0.7069 0.7074 92.9016 273.2087)" width="16" height="16" data-original="#000000" class="active-path" data-old_color="##6991C" fill="#6991C6"/>
	</g>
</g></g> </svg>
