<?xml version="1.0"?>
<svg xmlns="http://www.w3.org/2000/svg" viewBox="0 -66 512.00149 512" width="512px" height="512px"><g><path d="m440.828125 290.65625-.425781-.105469c-5.351563-1.363281-10.796875 1.867188-12.160156 7.21875-1.363282 5.351563 1.867187 10.796875 7.21875 12.160157l.453124.117187c.824219.207031 1.652344.308594 2.464844.308594 4.46875 0 8.539063-3.019531 9.6875-7.546875 1.355469-5.355469-1.886718-10.792969-7.238281-12.152344zm0 0" data-original="#000000" class="active-path" data-old_color="#000000" fill="#6991C6"/><path d="m469.945312 301.460938c-4.933593-2.472657-10.941406-.476563-13.417968 4.460937-2.476563 4.9375-.480469 10.945313 4.460937 13.421875 12.15625 6.089844 23.574219 14.433594 33.941407 24.800781 1.949218 1.953125 4.511718 2.929688 7.070312 2.929688s5.117188-.976563 7.070312-2.929688c3.90625-3.90625 3.90625-10.238281 0-14.144531-11.882812-11.882812-25.046874-21.484375-39.125-28.539062zm0 0" data-original="#000000" class="active-path" data-old_color="#000000" fill="#6991C6"/><path d="m429.984375 156.941406c-10.40625-15.730468-25.390625-21.800781-37.730469-26.800781-13.320312-5.394531-20.390625-8.652344-22.953125-18.222656-.015625-.054688-.035156-.105469-.050781-.15625-.050781-.175781-.105469-.34375-.164062-.515625-.046876-.136719-.09375-.269532-.148438-.402344-.058594-.148438-.121094-.300781-.1875-.445312-.070312-.152344-.140625-.304688-.21875-.453126-.058594-.117187-.121094-.234374-.1875-.351562-.097656-.175781-.203125-.347656-.3125-.515625-.054688-.085937-.105469-.167969-.164062-.25-.136719-.195313-.277344-.382813-.425782-.570313-.042968-.050781-.082031-.105468-.125-.15625-.175781-.214843-.363281-.414062-.558594-.613281-.019531-.019531-.039062-.042969-.0625-.066406-.902343-.902344-1.972656-1.621094-3.144531-2.121094-.03125-.011719-.0625-.023437-.09375-.035156-.257812-.105469-.519531-.203125-.785156-.289063-.070313-.019531-.136719-.039062-.207031-.058593-.234375-.066407-.472656-.128907-.714844-.183594-.082031-.015625-.167969-.03125-.253906-.046875-.230469-.042969-.460938-.078125-.695313-.105469-.097656-.011719-.195312-.019531-.292969-.03125-.222656-.019531-.445312-.027343-.671874-.03125-.066407-.003906-.128907-.011719-.195313-.011719-.050781 0-.097656.007813-.148437.007813-.195313.003906-.390626.015625-.589844.03125-.144532.011719-.289063.019531-.433594.035156-.042969.003907-.089844.007813-.132812.011719-.117188.015625-.230469.042969-.34375.0625-.164063.027344-.328126.050781-.488282.085938-.148437.035156-.292968.074218-.441406.113281-.160156.042969-.320312.082031-.476562.132812-.160157.050781-.3125.113281-.46875.171875-.136719.050782-.273438.09375-.40625.152344-.28125.121094-.558594.253906-.824219.394531-.03125.019531-.054688.035157-.085938.050781-.246093.136719-.488281.285157-.722656.441407-.074219.050781-.148437.109375-.222656.164062-.175781.125-.355469.253907-.523438.390625-.085937.070313-.167969.144532-.25.21875-.148437.128906-.296875.257813-.4375.394532-.089843.089843-.171875.179687-.257812.269531-.125.132812-.25.265625-.367188.40625-.085937.101562-.167969.207031-.25.3125-.105469.136719-.210937.273437-.308593.414062-.082032.117188-.160157.234375-.234376.351563-.089843.140625-.175781.28125-.257812.425781-.074219.125-.144531.253906-.210938.386719-.074218.144531-.144531.289062-.210937.4375-.0625.136718-.125.273437-.179687.410156-.0625.152344-.117188.308594-.167969.464844-.050781.140625-.101563.277344-.140625.421875-.050782.167969-.089844.335937-.132813.507812-.03125.136719-.070312.269531-.09375.410157-.039062.199218-.066406.398437-.09375.601562-.015625.113281-.035156.226562-.046875.34375-.03125.324219-.050781.648438-.050781.976562v44.78125c-17.257813 3.28125-36.007813 8.203126-58.609375 15.382813v-111.128906c84.957031-27.578125 152.316406-34.53125 203.898438 17.054687 1.953124 1.949219 4.511718 2.925782 7.070312 2.925782 2.5625 0 5.121094-.976563 7.074219-2.925782 3.902343-3.90625 3.902343-10.238281 0-14.144531-29.738281-29.738281-65.742188-44.242187-110.0625-44.347656-.15625 0-.308594 0-.464844 0-36.230469 0-73.960937 9.726562-107.519531 20.414062v-32.519531c0-3.371094-1.699219-6.519531-4.519532-8.363281-2.820312-1.851563-6.382812-2.148438-9.476562-.804688l-131.988281 57.535157c-.023438.007812-.046875.019531-.070313.027343l-.0625.03125c-.0625.027344-.121094.0625-.183594.089844-.226562.105469-.453124.210937-.667968.332031-.125.070313-.246094.148438-.367188.222656-.148437.09375-.300781.183594-.445312.285157-.15625.105469-.304688.21875-.449219.332031-.105469.082031-.210937.160156-.3125.246094-.15625.128906-.304687.269531-.457031.410156-.082032.082031-.167969.15625-.25.242188-.140625.144531-.273438.292968-.40625.445312-.082032.09375-.164063.183594-.242188.28125-.113281.144531-.222656.289062-.328125.4375-.085937.117188-.171875.238281-.253906.359375-.085937.132813-.164063.265625-.242187.402344-.085938.144531-.175782.292969-.253907.449219-.0625.117187-.117187.238281-.175781.359374-.082031.175782-.164062.347657-.234375.527344-.046875.113282-.089844.234375-.128906.351563-.070313.183593-.132813.367187-.191407.554687-.039062.136719-.070312.273438-.105468.410156-.042969.171876-.085938.34375-.121094.519532-.035156.183594-.058594.371094-.082031.554687-.019531.132813-.042969.261719-.054688.394531-.027343.257813-.035156.515626-.039062.777344 0 .0625-.007813.117188-.007813.179688v.058594.089843 23.5c-12.496094 2.617188-23.832031 4.230469-34.425781 4.878907-5.511719.335937-9.707031 5.078124-9.371094 10.589843.324219 5.304688 4.730469 9.390625 9.972657 9.390625.207031 0 .414062-.003906.621093-.019531 10.386719-.632813 21.335938-2.089844 33.203125-4.417969v98.839844c-6.070312-2.03125-12.949218-2.195312-19.859375-.347656-10.394531 2.789062-19.585937 9.640625-25.890625 18.402344-31.242187-.222657-56.179687-10.035157-76.089844-29.945313-3.90625-3.902344-10.234374-3.902344-14.140624 0-3.90625 3.90625-3.90625 10.238281 0 14.144531 22.042968 22.042969 48.949218 33.738282 81.925781 35.558594-.316407 2.011719-.488281 4.042969-.488281 6.078125 0 10.136719 4.214843 19.1875 11.566406 24.828125 5.230468 4.011719 11.742187 6.089844 18.679687 6.089844 3.144531 0 6.375-.425782 9.613281-1.296875 19.445313-5.207031 34.679688-24.640625 34.679688-44.234375v-.507813c21.992188-5.582031 44.394531-13.078125 65.882812-20.601562 1.011719 1.0625 2.09375 2.058593 3.265626 2.957031 5.226562 4.011719 11.738281 6.09375 18.679687 6.09375 3.144531 0 6.375-.429688 9.613281-1.296875 14.613282-3.914063 26.847656-15.863281 32.027344-29.875 24.113281-7.925781 43.640625-13.316406 61.265625-16.875v90.59375c-6.671875-2.503906-14.355469-2.816406-22.089844-.742187-17.078125 4.574218-31.089843 19.449218-35.476562 36.21875-18.339844 5.800781-36.851563 12.359374-54.808594 18.722656-85.699219 30.386718-166.648437 59.082031-220.191406 5.535156-3.90625-3.902344-10.238281-3.902344-14.144531 0-3.90625 3.90625-3.90625 10.238281 0 14.144531 24.023437 24.019531 54.082031 35.832031 91.464843 35.832031 6.703125 0 13.644531-.378906 20.824219-1.136718 40.613281-4.285156 85.410156-20.164063 128.730469-35.523438 15.796875-5.601562 32.027343-11.34375 48.082031-16.554687 1.851562 6.46875 5.527344 11.992187 10.796875 16.035156 5.511719 4.230469 12.382813 6.421875 19.710937 6.421875 3.332032 0 6.753907-.453125 10.1875-1.375 18.375-4.921875 33.203126-21.765625 36.304688-40.070312 9.242188-1.25 18.089844-1.957032 26.386719-2.09375 5.523437-.09375 9.925781-4.644532 9.835937-10.164063-.09375-5.46875-4.550781-9.835937-9.996094-9.835937-.058593 0-.113281 0-.171874 0-8.207032.136718-16.617188.753906-25.445313 1.847656v-94.3125c18.15625-.277344 46.519531 10.53125 54.902344 22.152344 1.914062 2.652343 4.957031 4.148437 8.109375 4.148437 1.023437 0 2.0625-.15625 3.074218-.484375 4.128907-1.332031 6.925782-5.175781 6.925782-9.515625 0-11.707031-1.152344-21.546875-3.160156-29.878906 20.914062 5.9375 39.15625 16.832031 55.4375 33.117187 1.953124 1.949219 4.511718 2.925782 7.070312 2.925782s5.117188-.976563 7.070312-2.925782c3.90625-3.90625 3.90625-10.238281 0-14.144531-22.566406-22.566406-48.4375-36.195313-79.085937-41.667969zm-158.957031-82.203125-112.121094 48.871094v-49.46875l112.121094-48.871094zm-151.980469 189.957031c-4.390625 1.175782-8.273437.699219-10.9375-1.34375-2.449219-1.878906-3.742187-4.976562-3.742187-8.960937 0-3.628906 1.082031-7.34375 2.910156-10.789063.15625-.261718.300781-.535156.433594-.8125 3.597656-6.273437 9.71875-11.492187 16.515624-13.316406 4.390626-1.175781 8.277344-.695312 10.941407 1.347656 2.445312 1.878907 3.738281 4.976563 3.738281 8.957032 0 10.625-9.09375 22.035156-19.859375 24.917968zm39.859375-46.089843v-73.179688l112.121094-48.871093v56.355468c-6.070313-2.03125-12.945313-2.199218-19.859375-.34375-19.445313 5.210938-34.683594 24.640625-34.683594 44.234375 0 1.191407.066406 2.367188.179687 3.523438-18.960937 6.621093-38.574218 13.171875-57.757812 18.28125zm92.261719-11.5c-4.390625 1.179687-8.277344.699219-10.941407-1.34375-2.445312-1.878907-3.738281-4.976563-3.738281-8.960938 0-10.621093 9.09375-22.035156 19.855469-24.917969h.003906c1.574219-.421874 3.085938-.632812 4.5-.632812 2.523438 0 4.730469.667969 6.4375 1.976562 2.449219 1.878907 3.742188 4.976563 3.742188 8.960938 0 10.621094-9.09375 22.035156-19.859375 24.917969zm76.378906 121.421875c-5 1.339844-9.457031.773437-12.542969-1.597656-2.855468-2.191407-4.367187-5.769532-4.367187-10.339844 0-.683594.035156-1.367188.101562-2.054688.007813-.050781.007813-.101562.011719-.152344 1.148438-11.164062 10.742188-22.53125 21.976562-25.539062 1.773438-.476562 3.480469-.710938 5.082032-.710938 2.910156 0 5.472656.777344 7.464844 2.304688 2.855468 2.195312 4.367187 5.769531 4.367187 10.339844-.003906 11.835937-10.117187 24.542968-22.09375 27.75zm42.679687-155.269532c-.195312 0-.390624 0-.585937 0v-31.515624c4.890625 2.800781 10.117187 4.917968 15.105469 6.9375 15.742187 6.375 30.777344 12.464843 35.984375 38.527343-15.109375-8.410156-34.527344-13.949219-50.503907-13.949219zm0 0" data-original="#000000" class="active-path" data-old_color="#000000" fill="#6991C6"/><path d="m62.941406 113.324219c.746094.167969 1.488282.25 2.222656.25 4.566407 0 8.6875-3.144531 9.742188-7.785157 1.226562-5.386718-2.148438-10.742187-7.535156-11.96875-.039063-.007812-.15625-.035156-.207032-.042968-5.394531-1.179688-10.664062 2.226562-11.859374 7.605468-1.195313 5.394532 2.242187 10.742188 7.636718 11.941407zm0 0" data-original="#000000" class="active-path" data-old_color="#000000" fill="#6991C6"/><path d="m33.363281 102.917969c1.457031.742187 3.011719 1.097656 4.542969 1.097656 3.636719 0 7.144531-1.992187 8.914062-5.457031 2.511719-4.917969.558594-10.941406-4.359374-13.453125-9.132813-4.664063-17.675782-10.9375-25.390626-18.652344-3.902343-3.90625-10.238281-3.902344-14.140624 0-3.90625 3.90625-3.90625 10.238281 0 14.144531 9.195312 9.195313 19.4375 16.703125 30.433593 22.320313zm0 0" data-original="#000000" class="active-path" data-old_color="#000000" fill="#6991C6"/></g> </svg>
