<svg height="511pt" viewBox="-41 0 511 511.9892" width="511pt" xmlns="http://www.w3.org/2000/svg"><path d="m153.539062 214.625-35.980468-62.175781c-5.957032-10.289063-2.441406-23.457031 7.847656-29.414063 10.289062-5.953125 23.457031-2.441406 29.414062 7.851563l25.734376 44.464843 57.066406-29.273437c10.578125-5.421875 23.554687-1.246094 28.980468 9.332031 5.425782 10.578125 1.246094 23.554688-9.328124 28.980469l-75.277344 38.605469c-10.285156 5.277344-22.761719 1.46875-28.457032-8.371094zm0 0" fill="#ffb69e"/><path d="m172.363281 161.195312-17.542969-30.308593c-5.953124-10.292969-19.125-13.804688-29.414062-7.851563-10.289062 5.957032-13.804688 19.125-7.847656 29.414063l18.402344 31.796875zm0 0" fill="#4699f2"/><path d="m148.886719 511.964844c-14.257813-.585938-25.335938-12.613282-24.753907-26.867188l4.78125-116.457031-63.679687-82.796875c-8.699219-11.308594-6.582031-27.527344 4.726563-36.226562 11.3125-8.695313 27.53125-6.582032 36.226562 4.730468l69.398438 90.230469c3.695312 4.800781 5.585937 10.75 5.335937 16.808594l-5.167969 125.828125c-.585937 14.351562-12.714844 25.335937-26.867187 24.75zm0 0" fill="#414b82"/><path d="m72.722656 511.902344c-14.21875-1.160156-24.804687-13.628906-23.644531-27.847656l8.628906-105.847657-52.070312-69.671875c-8.542969-11.429687-6.199219-27.617187 5.226562-36.15625 11.429688-8.542968 27.617188-6.199218 36.15625 5.226563l57.921875 77.5c3.769532 5.042969 5.566406 11.289062 5.054688 17.5625l-9.425782 115.585937c-1.160156 14.234375-13.648437 24.808594-27.847656 23.648438zm0 0" fill="#5f6e9b"/><path d="m87.773438 298.679688-86.066407-13.210938 38.660157-160.078125c4.164062-17.230469 21.503906-27.828125 38.738281-23.664063l55.636719 13.4375c17.234374 4.160157 27.828124 21.503907 23.667968 38.734376l-28.074218 116.238281c-4.617188 19.125-23.113282 31.527343-42.5625 28.542969zm0 0" fill="#64afff"/><path d="m177.625 47.515625c0 26.242187-21.273438 47.515625-47.511719 47.515625-26.242187 0-47.515625-21.273438-47.515625-47.515625s21.273438-47.515625 47.515625-47.515625c26.238281 0 47.511719 21.273438 47.511719 47.515625zm0 0" fill="#ffb69e"/><path d="m208.160156 264.75-85.347656-10.621094c-7.15625-.890625-13.386719-5.300781-16.605469-11.753906l-46.796875-93.816406c-5.308594-10.640625-.984375-23.566406 9.652344-28.871094 10.636719-5.316406 23.566406-.984375 28.875 9.652344l41.644531 83.488281 73.894531 9.199219c11.800782 1.464844 20.171876 12.222656 18.703126 24.019531-1.464844 11.785156-12.210938 20.175781-24.019532 18.703125zm0 0" fill="#ffb69e"/><path d="m85.917969 201.707031 39.40625-17.460937-27.386719-54.90625c-5.308594-10.636719-18.238281-14.964844-28.875-9.652344-10.636719 5.304688-14.960938 18.234375-9.65625 28.871094zm0 0" fill="#4699f2"/><path d="m306.929688 274.320312c-2.996094 0-5.910157-1.566406-7.496094-4.359374l-74.574219-131.210938c-2.347656-4.136719-.902344-9.390625 3.230469-11.742188 4.136718-2.347656 9.390625-.902343 11.742187 3.230469l74.574219 131.214844c2.347656 4.132813.902344 9.390625-3.230469 11.742187-1.34375.761719-2.804687 1.125-4.246093 1.125zm0 0" fill="#e28c71"/><path d="m412.453125 266.535156h-153.359375c-4.753906 0-8.609375-3.851562-8.609375-8.609375 0-4.753906 3.855469-8.613281 8.609375-8.613281h153.359375c4.757813 0 8.613281 3.855469 8.613281 8.613281 0 4.753907-3.855468 8.609375-8.613281 8.609375zm0 0" fill="#87afb9"/><path d="m412.453125 501.554688c0 5.761718-4.671875 10.433593-10.433594 10.433593h-132.488281c-5.761719 0-10.433594-4.671875-10.433594-10.433593v-174.742188h153.359375v174.742188zm0 0" fill="#87afb9"/><path d="m280.125 230.539062c-4.597656 0-8.324219 3.726563-8.324219 8.324219v31.226563c0 34.914062 28.644531 63.214844 63.972657 63.214844 35.332031 0 63.972656-28.300782 63.972656-63.214844v-31.226563c0-4.597656-3.726563-8.324219-8.324219-8.324219zm0 0" fill="#6c9baa"/><g fill="#c8e6eb"><path d="m412.453125 357.8125h-153.359375c-9.507812 0-17.21875-7.710938-17.21875-17.222656 0-9.511719 7.710938-17.222656 17.21875-17.222656h153.359375c9.511719 0 17.222656 7.710937 17.222656 17.222656 0 9.511718-7.710937 17.222656-17.222656 17.222656zm0 0"/><path d="m351.816406 163.570312c-.464844 2.441407 2.582032 3.96875 4.261719 2.132813 5.640625-6.175781 11.421875-14.976563 8.441406-23.011719-4.5-12.15625-8.921875-17.550781-6.945312-26.707031.128906-.597656-.167969-1.207031-.71875-1.46875-.550781-.265625-1.210938-.121094-1.597657.355469-3.734374 4.585937-8.53125 12.722656-7.128906 23.121094 1.597656 11.832031 5.144532 17.933593 3.6875 25.578124zm0 0"/><path d="m319.019531 208.160156c-.46875 2.445313 2.578125 3.96875 4.257813 2.132813 5.640625-6.175781 11.421875-14.976563 8.445312-23.011719-4.503906-12.15625-8.925781-17.550781-6.949218-26.707031.128906-.597657-.167969-1.207031-.71875-1.46875-.550782-.265625-1.210938-.121094-1.597657.355469-3.734375 4.585937-8.53125 12.722656-7.128906 23.121093 1.597656 11.832031 5.144531 17.933594 3.691406 25.578125zm0 0"/></g></svg>