<svg height="464pt" viewBox="0 -4 464 464" width="464pt" xmlns="http://www.w3.org/2000/svg"><path d="m240.273438 76.105469c-7.417969-.191407-14.742188-1.742188-21.601563-4.570313-8.558594-3.957031-18.265625-4.671875-27.3125-2.007812l-4.214844-15.429688c12.199219-3.523437 25.246094-2.675781 36.886719 2.398438 8.558594 3.972656 18.265625 4.6875 27.3125 2.015625 9.160156-2.296875 17.167969-7.847657 22.535156-15.617188 15.648438-20.835937 43.433594-28.414062 67.488282-18.398437 8.570312 3.957031 18.289062 4.671875 27.34375 2.007812l4.199218 15.433594c-12.207031 3.523438-25.261718 2.675781-36.910156-2.402344-17.75-7.785156-38.523438-2.117187-49.863281 13.601563-7.460938 10.289062-18.289063 17.648437-30.601563 20.800781-4.964844 1.40625-10.101562 2.132812-15.261718 2.167969zm0 0" fill="#ffa733"/><path d="m373.382812 99.199219c-12.804687-.386719-25.042968-5.359375-34.488281-14.015625-14.269531-13.226563-36.007812-14.214844-51.421875-2.335938-21.175781 15.636719-50.410156 14.300782-70.074218-3.199218-6.804688-6.550782-15.8125-10.324219-25.253907-10.585938l.710938-16c12.796875.390625 25.027343 5.367188 34.464843 14.015625 14.265626 13.230469 36 14.21875 51.40625 2.335937 21.1875-15.632812 50.425782-14.296874 70.097657 3.203126 6.816406 6.550781 15.828125 10.324218 25.28125 10.582031zm0 0" fill="#ffa733"/><path d="m352 296c0 104-87.601562 160-176 160s-176-40-176-160c0-76 64.71875-192.71875 139.039062-224 6.804688-2.945312 13.914063-5.117188 21.199219-6.480469 10.410157-2.027343 21.113281-2.027343 31.523438 0 7.285156 1.363281 14.394531 3.535157 21.199219 6.480469 74.320312 31.28125 139.039062 148 139.039062 224zm0 0" fill="#1db794"/><path d="m184 208c-31.226562-.027344-57.917969 22.484375-63.152344 53.269531-5.234375 30.789063 12.511719 60.855469 41.996094 71.152344 29.480469 10.296875 62.089844-2.191406 77.15625-29.542969v-61.757812c-11.199219-20.457032-32.679688-33.164063-56-33.121094zm0 0" fill="#ffe477"/><path d="m184 208c-31.226562-.027344-57.917969 22.484375-63.152344 53.269531-5.234375 30.789063 12.511719 60.855469 41.996094 71.152344 29.480469 10.296875 62.089844-2.191406 77.15625-29.542969v-61.757812c-11.199219-20.457032-32.679688-33.164063-56-33.121094zm0 0" fill="#ffe477"/><path d="m240 241.121094v61.757812c-11.199219 20.457032-32.679688 33.164063-56 33.121094-2.675781.003906-5.34375-.160156-8-.480469 32.078125-3.949219 56.175781-31.199219 56.175781-63.519531s-24.097656-59.570312-56.175781-63.519531c2.65625-.320313 5.324219-.484375 8-.480469 23.320312-.042969 44.800781 12.664062 56 33.121094zm0 0" fill="#ffd422"/><path d="m448 168h-192c-8.824219.027344-15.972656 7.175781-16 16v256c.027344 8.824219 7.175781 15.972656 16 16h192c8.824219-.027344 15.972656-7.175781 16-16v-256c-.027344-8.824219-7.175781-15.972656-16-16zm-112 248c0 4.417969-3.582031 8-8 8h-48c-4.417969 0-8-3.582031-8-8v-48c0-4.417969 3.582031-8 8-8h48c4.417969 0 8 3.582031 8 8zm0-88c0 4.417969-3.582031 8-8 8h-48c-4.417969 0-8-3.582031-8-8v-48c0-4.417969 3.582031-8 8-8h48c4.417969 0 8 3.582031 8 8zm96 88c0 4.417969-3.582031 8-8 8h-48c-4.417969 0-8-3.582031-8-8v-136c0-4.417969 3.582031-8 8-8h48c4.417969 0 8 3.582031 8 8zm0-176c0 4.417969-3.582031 8-8 8h-144c-4.417969 0-8-3.582031-8-8v-32c0-4.417969 3.582031-8 8-8h144c4.417969 0 8 3.582031 8 8zm0 0" fill="#fd7777"/><path d="m280 200h144c4.417969 0 8 3.582031 8 8v32c0 4.417969-3.582031 8-8 8h-144c-4.417969 0-8-3.582031-8-8v-32c0-4.417969 3.582031-8 8-8zm0 0" fill="#ffe477"/><path d="m280 272h48c4.417969 0 8 3.582031 8 8v48c0 4.417969-3.582031 8-8 8h-48c-4.417969 0-8-3.582031-8-8v-48c0-4.417969 3.582031-8 8-8zm0 0" fill="#ffc477"/><path d="m280 360h48c4.417969 0 8 3.582031 8 8v48c0 4.417969-3.582031 8-8 8h-48c-4.417969 0-8-3.582031-8-8v-48c0-4.417969 3.582031-8 8-8zm0 0" fill="#ffc477"/><path d="m216 24c-1.34375 11.921875-6.410156 23.121094-14.480469 32-2.886719 3.527344-6.160156 6.722656-9.757812 9.519531-4.421875 3.796875-9.949219 6.066407-15.761719 6.480469-5.8125-.414062-11.339844-2.683594-15.761719-6.480469-3.597656-2.796875-6.871093-5.992187-9.757812-9.519531-8.070313-8.878906-13.136719-20.078125-14.480469-32 0-17.679688 22.320312-24 40-24s40 6.320312 40 24zm0 0" fill="#1db794"/><path d="m312 288h-16v8h-8v16h8v8h16v-8h8v-16h-8zm0 0" fill="#ff6243"/><path d="m288 384h32v16h-32zm0 0" fill="#ff6243"/><path d="m187.574219 264.800781c-6.773438-3.34375-11.574219-5.96875-11.574219-8.800781 0-4.417969 3.582031-8 8-8s8 3.582031 8 8h16c-.042969-10.132812-6.445312-19.148438-16-22.527344v-9.472656h-16v9.472656c-9.554688 3.378906-15.957031 12.394532-16 22.527344 0 12.945312 11.808594 18.839844 20.425781 23.199219 6.773438 3.34375 11.574219 5.96875 11.574219 8.800781 0 4.417969-3.582031 8-8 8s-8-3.582031-8-8h-16c.042969 10.132812 6.445312 19.148438 16 22.527344v9.472656h16v-9.472656c9.554688-3.378906 15.957031-12.394532 16-22.527344 0-12.945312-11.808594-18.839844-20.425781-23.199219zm0 0" fill="#ff7956"/><path d="m152 56h48c4.417969 0 8 3.582031 8 8s-3.582031 8-8 8h-48c-4.417969 0-8-3.582031-8-8s3.582031-8 8-8zm0 0" fill="#ffa733"/><path d="m432 208v32c0 4.417969-3.582031 8-8 8h-56s48 0 64-40zm0 0" fill="#ffd422"/><path d="m464 312v128c-.027344 8.824219-7.175781 15.972656-16 16h-112c17.765625-8.847656 34.527344-19.574219 50-32 17.277344-13.441406 32.738281-29.066406 46-46.480469 14.925781-19.488281 25.804688-41.765625 32-65.519531zm0 0" fill="#ff6243"/><path d="m376 272h48c4.417969 0 8 3.582031 8 8v136c0 4.417969-3.582031 8-8 8h-48c-4.417969 0-8-3.582031-8-8v-136c0-4.417969 3.582031-8 8-8zm0 0" fill="#ffc477"/><g fill="#ff6243"><path d="m384 328h32v16h-32zm0 0"/><path d="m384 352h32v16h-32zm0 0"/></g></svg>