<?xml version="1.0" encoding="utf-8"?>
<!-- Generator: Adobe Illustrator 19.1.0, SVG Export Plug-In . SVG Version: 6.00 Build 0)  -->
<svg version="1.1" id="图层_1" xmlns="http://www.w3.org/2000/svg" xmlns:xlink="http://www.w3.org/1999/xlink" x="0px" y="0px"
	 viewBox="-224 25 511 511" style="enable-background:new -224 25 511 511;" xml:space="preserve">
<style type="text/css">
	.st0{fill:#FFBEAB;}
	.st1{fill:#F7AF9F;}
	.st2{fill:#54A0FF;}
	.st3{fill:#338DEF;}
	.st4{fill:#FF6B6B;}
	.st5{fill:#576574;}
	.st6{fill:#3E4B5A;}
	.st7{fill:#FFCDBF;}
	.st8{fill:#EE5253;}
	.st9{font-family:'Lato-Black';}
	.st10{font-size:70px;}
	.st11{fill:#C4E3E8;}
</style>
<path class="st0" d="M118.4,335.9c19.2,20.4,50.6,20.4,69.8,0l7.2-7.6l-10.8-4.2c-2.4-0.9-4.1-3.3-4.1-5.9v-20
	c-7.5,5.2-16.7,8.3-26.5,8.3c-10.3,0-19.3-2.8-26.7-7.6V318c0,2.8-1.7,5.2-4.3,6.2l-11.5,4.4L118.4,335.9z"/>
<path class="st1" d="M157.1,306.3c-1,0.1-2,0.1-3.1,0.1c-10.3,0-19.3-2.8-26.7-7.6V318c0,2.8-1.7,5.2-4.3,6.2l-11.5,4.4l6.9,7.3
	c10.5,11.2,24.8,16.2,38.7,15.1V306.3z"/>
<path class="st2" d="M251,349.8l-57.2-22.1l-7.4,7.8c-18.2,19.3-48,19.3-66.2,0l-7.1-7.5l-56.3,21.8c0,0-26.1,10.7-26.1,40.4v126.9
	c0,6.6,5.3,11.9,11.9,11.9h222.4c6.6,0,11.9-5.3,11.9-11.9V390.2C277,360.5,251,349.8,251,349.8z"/>
<path class="st3" d="M60.8,517.1v-142c0-15.6,7.2-26,14-32.3l-17.9,7c0,0-26.1,10.7-26.1,40.4v126.9c0,6.6,5.3,11.9,11.9,11.9h29.9
	C66.1,529,60.8,523.7,60.8,517.1z"/>
<path class="st4" d="M117.9,99.6l-18-12.5c-2.1-1.4-4.9,0-4.9,2.6v40c0,2.5,2.8,4,4.9,2.6l18-12.5V99.6z"/>
<path class="st5" d="M153.9,144.8c-35.2,0-63.7,28.5-63.7,63.7V232c4.3-3.9,10.3-4.7,16.2-3.9v-3.2c0-2.5,2.2-4.5,4.7-4.3
	c24.6,1.8,49.7-6.1,68.7-18.4c1.8-1.2,4.1-0.9,5.6,0.7c16.2,17.4,16.1,16.7,16.1,19v6.2c6.5-1,12.2-0.3,16.2,3.4v-23
	C217.6,173.3,189.1,144.8,153.9,144.8z"/>
<path class="st6" d="M120.2,208.5c0-30,20.8-55.2,48.7-61.9c-4.8-1.2-9.8-1.8-15-1.8c-35.2,0-63.7,28.5-63.7,63.7V232
	c4.3-3.9,10.3-4.7,16.2-3.9v-3.2c0-2.5,2.2-4.5,4.7-4.3c3,0.2,6,0.3,9.1,0.2V208.5z"/>
<path class="st0" d="M201,226.4V262c0,0.4,0,0.8,0,1.2c12.6,1.9,22.5-7.2,22.5-18.4C223.4,233.5,213.5,224.5,201,226.4z"/>
<path class="st0" d="M107.1,262.1v-35.9c-11.1-1.5-22.6,7-22.6,18.5c0,11.3,9.9,20.4,22.6,18.5C107.1,262.9,107.1,262.5,107.1,262.1
	z"/>
<path class="st1" d="M217.6,231.2c-4.1-3.8-10-5.9-16.6-4.9V262c0,0.4,0,0.8,0,1.2c6.7,1,12.5-1.1,16.6-4.9V231.2z"/>
<path class="st1" d="M107.1,258.5c-3.8-3.5-6-8.4-6-13.7c0-5.2,2.4-9.8,6-13.1v-5.4c-11.1-1.5-22.6,7-22.6,18.5
	c0,11.3,9.9,20.4,22.6,18.5c0-0.4,0-0.8,0-1.2V258.5z"/>
<path class="st7" d="M185.3,201.5c-1.4-1.5-3.8-1.8-5.6-0.7c-19,12.4-44,20.2-68.7,18.4c-2.5-0.2-4.7,1.8-4.7,4.3v38.1
	c0,24.5,19.2,46.8,48.2,46.8c25.8,0,46.8-21,46.8-46.8v-41.1C201.4,218.2,201.5,218.9,185.3,201.5z"/>
<path class="st0" d="M136.4,261.6v-43.8c-8.3,1.5-16.8,2-25.3,1.4c-2.5-0.2-4.7,1.8-4.7,4.3v38.1c0,24.5,19.2,46.8,48.2,46.8
	c5.1,0,9.9-0.8,14.5-2.3C148.9,299.8,136.4,281.4,136.4,261.6z"/>
<path class="st0" d="M-127.6,335.9c19.2,20.4,50.6,20.4,69.8,0l7.2-7.6l-10.8-4.2c-2.4-0.9-4.1-3.3-4.1-5.9v-20
	c-7.5,5.2-16.7,8.3-26.5,8.3c-10.3,0-19.3-2.8-26.7-7.6V318c0,2.8-1.7,5.2-4.3,6.2l-11.5,4.4L-127.6,335.9z"/>
<path class="st1" d="M-88.9,306.3c-1,0.1-2,0.1-3.1,0.1c-10.3,0-19.3-2.8-26.7-7.6V318c0,2.8-1.7,5.2-4.3,6.2l-11.5,4.4l6.9,7.3
	c10.5,11.2,24.8,16.2,38.7,15.1V306.3z"/>
<path class="st4" d="M5,349.8l-57.2-22.1l-7.4,7.8c-18.2,19.3-48,19.3-66.2,0l-7.1-7.5l-56.3,21.8c0,0-26.1,10.7-26.1,40.4v126.9
	c0,6.6,5.3,11.9,11.9,11.9H19.1c6.6,0,11.9-5.3,11.9-11.9V390.2C31,360.5,5,349.8,5,349.8z"/>
<path class="st8" d="M-185.2,517.1v-142c0-15.6,7.2-26,14-32.3l-17.9,7c0,0-26.1,10.7-26.1,40.4v126.9c0,6.6,5.3,11.9,11.9,11.9
	h29.9C-179.9,529-185.2,523.7-185.2,517.1z"/>
<path class="st5" d="M-92.1,144.8c-35.2,0-63.7,28.5-63.7,63.7V232c4.3-3.9,10.3-4.7,16.2-3.9v-3.2c0-2.5,2.2-4.5,4.7-4.3
	c24.6,1.8,49.7-6.1,68.7-18.4c1.8-1.2,4.1-0.9,5.6,0.7c16.2,17.4,16.1,16.7,16.1,19v6.2c6.5-1,12.2-0.3,16.2,3.4v-23
	C-28.3,173.3-56.9,144.8-92.1,144.8z"/>
<path class="st6" d="M-125.8,208.5c0-30,20.8-55.2,48.7-61.9c-4.8-1.2-9.8-1.8-15-1.8c-35.2,0-63.7,28.5-63.7,63.7V232
	c4.3-3.9,10.3-4.7,16.2-3.9v-3.2c0-2.5,2.2-4.5,4.7-4.3c3,0.2,6,0.3,9.1,0.2V208.5z"/>
<path class="st0" d="M-45,226.4V262c0,0.4,0,0.8,0,1.2c12.6,1.9,22.5-7.2,22.5-18.4C-22.6,233.5-32.5,224.5-45,226.4z"/>
<path class="st0" d="M-138.9,262.1v-35.9c-11.1-1.5-22.6,7-22.6,18.5c0,11.3,9.9,20.4,22.6,18.5
	C-138.9,262.9-138.9,262.5-138.9,262.1z"/>
<path class="st1" d="M-28.4,231.2c-4.1-3.8-10-5.9-16.6-4.9V262c0,0.4,0,0.8,0,1.2c6.7,1,12.5-1.1,16.6-4.9V231.2z"/>
<path class="st1" d="M-138.9,258.5c-3.8-3.5-6-8.4-6-13.7c0-5.2,2.4-9.8,6-13.1v-5.4c-11.1-1.5-22.6,7-22.6,18.5
	c0,11.3,9.9,20.4,22.6,18.5c0-0.4,0-0.8,0-1.2V258.5z"/>
<path class="st7" d="M-60.7,201.5c-1.4-1.5-3.8-1.8-5.6-0.7c-19,12.4-44,20.2-68.7,18.4c-2.5-0.2-4.7,1.8-4.7,4.3v38.1
	c0,24.5,19.2,46.8,48.2,46.8c25.8,0,46.8-21,46.8-46.8v-41.1C-44.6,218.2-44.5,218.9-60.7,201.5z"/>
<path class="st0" d="M-109.6,261.6v-43.8c-8.3,1.5-16.8,2-25.3,1.4c-2.5-0.2-4.7,1.8-4.7,4.3v38.1c0,24.5,19.2,46.8,48.2,46.8
	c5.1,0,9.9-0.8,14.5-2.3C-97.1,299.8-109.6,281.4-109.6,261.6z"/>
<g>
	<path class="st4" d="M-4.5,116.2h89.5v11c0,7.5,8.5,11.9,14.6,7.7l25.3-17.6c5.3-3.7,5.3-11.6,0-15.3L99.7,84.4
		c-6.2-4.3-14.6,0.2-14.6,7.7v11H-4.5c-3.6,0-6.6,2.9-6.6,6.6C-11.1,113.3-8.1,116.2-4.5,116.2z M97.5,98l16.9,11.7l-16.9,11.7V98z"
		/>
</g>
<text transform="matrix(1 0 0 1 31.5002 96)" class="st4 st9 st10">?</text>
<path class="st11" d="M-55.8,96.2c-4.9,0-9.5,1.4-13.3,3.9C-71.3,88.6-81.4,80-93.5,80c-11.9,0-21.9,8.4-24.3,19.6
	c-3.7-2.1-7.9-3.4-12.5-3.4c-13.7,0-24.8,11.1-24.8,24.8c0,13.7,11.1,24.8,24.8,24.8v16.9h74.4v-16.9c13.7,0,24.8-11.1,24.8-24.8
	S-42.1,96.2-55.8,96.2z"/>
</svg>
