<svg height="512pt" viewBox="-48 0 512 512" width="512pt" xmlns="http://www.w3.org/2000/svg"><path d="m344.570312 213.882812c-4.160156-9.164062-14.960937-13.222656-24.125-9.0625l-37.375 16.964844v-33.402344c0-.03125 0-.0625 0-.09375-.117187-23.65625-19.601562-42.90625-43.429687-42.90625-9.910156 0-85.625 0-97.742187 0-23.65625 0-43.101563 19.25-43.222657 42.898438v35.476562l-40.613281-17.679687c-9.226562-4.027344-19.964844.1875-23.992188 9.414063-4.023437 9.222656.191407 19.960937 9.414063 23.988281l65.871094 28.746093c11.933593 5.207032 25.613281-3.476562 25.6875-16.597656v-63.15625c.019531-3.664062 3.191406-6.644531 6.855469-6.644531h97.742187c3.757813 0 6.949219 3.023437 6.988281 6.613281v61.625c0 13.265625 13.734375 22.046875 25.753906 16.59375l63.125-28.652344c9.164063-4.160156 13.21875-14.960937 9.0625-24.125zm0 0" fill="#ffb69e"/><path d="m216.683594 512c-11.902344 0-21.550782-9.648438-21.550782-21.550781v-172.257813c0-11.902344 9.648438-21.550781 21.550782-21.550781 11.898437 0 21.546875 9.648437 21.546875 21.550781v172.257813c0 11.902343-9.648438 21.550781-21.546875 21.550781zm0 0" fill="#55696e"/><path d="m164.640625 512c-11.902344 0-21.550781-9.648438-21.550781-21.550781v-172.257813c0-11.902344 9.648437-21.550781 21.550781-21.550781s21.550781 9.648437 21.550781 21.550781v172.257813c0 11.902343-9.648437 21.550781-21.550781 21.550781zm0 0" fill="#748488"/><path d="m238.003906 145.382812h-96.105468c-23.65625 0-43.101563 19.25-43.222657 42.898438v35.476562l-23.699219-10.316406-13.550781 33.867188 47.929688 20.917968c11.933593 5.207032 25.613281-3.476562 25.6875-16.601562v-63.152344c.019531-3.664062 3.191406-6.644531 6.855469-6.644531h1.191406v135.660156h95.125v-172.105469c-.066406 0-.140625 0-.210938 0zm0 0" fill="#a5c8cd"/><path d="m302.863281 212.800781-19.792969 8.980469v-33.492188c-.117187-23.65625-19.601562-42.90625-43.429687-42.90625-35.839844 0-16.984375 0-40.246094 0l-26.074219 17.515626c-5.421874 3.644531-8.671874 9.742187-8.671874 16.273437v138.316406h73.566406v-135.660156h1.421875c3.761719 0 6.953125 3.023437 6.988281 6.613281v61.625c0 13.265625 13.738281 22.046875 25.753906 16.59375l43.390625-19.695312zm0 0" fill="#c8e6eb"/><path d="m228.066406 97.003906c0 20.554688-16.664062 37.21875-37.21875 37.21875-20.554687 0-37.21875-16.664062-37.21875-37.21875 0-20.558594 16.664063-37.222656 37.21875-37.222656 20.554688 0 37.21875 16.664062 37.21875 37.222656zm0 0" fill="#ffb69e"/><g fill="#87afb9"><path d="m197.5625 190.980469c0 3.96875-3.21875 7.183593-7.183594 7.183593-3.96875 0-7.183594-3.214843-7.183594-7.183593s3.214844-7.183594 7.183594-7.183594c3.964844 0 7.183594 3.214844 7.183594 7.183594zm0 0"/><path d="m197.5625 240.066406c0 3.96875-3.21875 7.183594-7.183594 7.183594-3.96875 0-7.183594-3.214844-7.183594-7.183594 0-3.964844 3.214844-7.183594 7.183594-7.183594 3.964844 0 7.183594 3.21875 7.183594 7.183594zm0 0"/><path d="m197.5625 289.15625c0 3.964844-3.21875 7.183594-7.183594 7.183594-3.96875 0-7.183594-3.21875-7.183594-7.183594 0-3.96875 3.214844-7.183594 7.183594-7.183594 3.964844 0 7.183594 3.214844 7.183594 7.183594zm0 0"/><path d="m227.734375 190.980469c0 3.96875-3.21875 7.183593-7.183594 7.183593-3.96875 0-7.183593-3.214843-7.183593-7.183593s3.214843-7.183594 7.183593-7.183594c3.964844 0 7.183594 3.214844 7.183594 7.183594zm0 0"/><path d="m227.734375 240.066406c0 3.96875-3.21875 7.183594-7.183594 7.183594-3.96875 0-7.183593-3.214844-7.183593-7.183594 0-3.964844 3.214843-7.183594 7.183593-7.183594 3.964844 0 7.183594 3.21875 7.183594 7.183594zm0 0"/><path d="m227.734375 289.15625c0 3.964844-3.21875 7.183594-7.183594 7.183594-3.96875 0-7.183593-3.21875-7.183593-7.183594 0-3.96875 3.214843-7.183594 7.183593-7.183594 3.964844 0 7.183594 3.214844 7.183594 7.183594zm0 0"/><path d="m228.066406 16.21875c-4.910156 0-9.476562 1.445312-13.328125 3.90625-2.195312-11.460938-12.261719-20.125-24.359375-20.125-11.921875 0-21.871094 8.410156-24.261718 19.617188-3.671876-2.148438-7.929688-3.398438-12.488282-3.398438-13.707031 0-24.820312 11.113281-24.820312 24.816406 0 13.707032 11.113281 24.820313 24.820312 24.820313v16.890625h74.441406v-16.890625c13.707032 0 24.816407-11.109375 24.816407-24.816407 0-13.707031-11.113281-24.820312-24.820313-24.820312zm0 0"/></g><path d="m44.964844 204.351562c-2.539063-12.230468-6.605469-24.019531-12.097656-35.234374-.105469-.21875-.199219-.445313-.273438-.6875-.796875-2.550782.625-5.261719 3.175781-6.054688h.003907l8.832031-2.757812c2.550781-.789063 5.269531.632812 6.0625 3.1875.074219.238281.128906.476562.164062.714843 1.835938 12.246094 5.261719 24.496094 10.082031 35.902344l17.355469 41.070313c1.40625 3.316406 1.332031 7.066406-.183593 10.324218-1.507813 3.269532-4.332032 5.738282-7.757813 6.808594-3.441406 1.066406-7.164063.652344-10.265625-1.183594-3.105469-1.824218-5.273438-4.875-6.019531-8.394531zm0 0" fill="#55879b"/><path d="m280.859375 181.265625 7.765625 24.054687c1.554688 3.800782 5.246094 6.28125 9.351562 6.28125h95.714844c4.105469 0 7.796875-2.480468 9.351563-6.28125l7.761719-24.054687c-.933594.140625-129.007813.140625-129.945313 0zm0 0" fill="#55879b"/><path d="m61.476562 123.914062c-5.148437-16.503906-22.769531-25.746093-39.273437-20.609374-.003906 0-.011719.003906-.015625.003906l-2.125.785156c-15.539062 5.742188-23.71875 22.78125-18.480469 38.5 4.382813 14.046875 33.183594 36.722656 38.914063 41.125 4.339844 3.335938 10.675781 1.359375 12.351562-3.855469 2.207032-6.875 13.007813-41.902343 8.628906-55.949219zm-15.105468 4.710938c1.003906 3.222656.144531 10.984375-1.707032 20.164062l-9.5625-30.644531c5.164063 1.230469 9.578126 5.058594 11.269532 10.480469zm-29.683594 9.257812c-1.691406-5.421874-.234375-11.078124 3.3125-15.023437l9.554688 30.632813c-6.734376-6.492188-11.859376-12.386719-12.867188-15.609376zm0 0" fill="#87afb9"/><path d="m411.878906 162.859375c-7.433594-12.488281-19.679687-19.613281-28.738281-23.566406-7.808594-3.40625-25.597656-7.886719-36.957031-7.886719-.117188 0-.234375.003906-.347656.003906-.117188 0-.234376-.003906-.347657-.003906-11.363281 0-29.152343 4.480469-36.960937 7.886719-9.054688 3.949219-21.304688 11.078125-28.738282 23.566406-4.25 7.140625-5.585937 15.523437.289063 21.398437l.21875.21875c4.027344 4.027344 10.558594 4.027344 14.585937 0 4.015626-4.015624 10.523438-4.011718 14.535157 0l.015625.011719c4.019531 4.015625 10.53125 4.027344 14.5625 0 4.023437-4.027343 10.542968-4.015625 14.558594 0 4.019531 4.019531 10.542968 4.019531 14.5625 0 4.023437-4.023437 10.542968-4.015625 14.558593 0 4.011719 4.007813 10.523438 4.035157 14.5625 0l.015625-.011719c4.011719-4.011718 10.519532-4.015624 14.535156 0 4.027344 4.027344 10.558594 4.027344 14.585938 0l.21875-.21875c5.871094-5.875 4.535156-14.257812.285156-21.398437zm0 0" fill="#dcbe82"/><path d="m351.457031 158.300781c0 3.105469-2.519531 5.621094-5.625 5.621094s-5.621093-2.515625-5.621093-5.621094c0-3.109375 2.515624-13.621093 5.621093-13.621093s5.625 10.511718 5.625 13.621093zm0 0" fill="#c8a06e"/><path d="m323.542969 155.019531c-2.195313 2.199219-5.757813 2.199219-7.953125 0-2.195313-2.195312-2.195313-5.757812 0-7.953125 2.195312-2.195312 11.410156-7.851562 13.609375-5.652344 2.195312 2.195313-3.460938 11.410157-5.65625 13.605469zm0 0" fill="#c8a06e"/><path d="m368.125 155.019531c2.195312 2.199219 5.757812 2.199219 7.953125 0 2.199219-2.195312 2.199219-5.757812 0-7.953125-2.195313-2.195312-11.410156-7.851562-13.609375-5.652344-2.195312 2.195313 3.460938 11.410157 5.65625 13.605469zm0 0" fill="#c8a06e"/></svg>